<svg xmlns="http://www.w3.org/2000/svg" viewBox="0 0 14.22 17.72"><defs><style>.cls-1{fill:#c1272d;}</style></defs><title>bell</title><g id="Layer_2" data-name="Layer 2"><g id="Layer_1-2" data-name="Layer 1"><path class="cls-1" d="M12.69,11.67V8.35A5.58,5.58,0,0,0,9.08,3.14a2.15,2.15,0,0,0,.23-1,2.2,2.2,0,0,0-4.39,0,2.17,2.17,0,0,0,.22,1,5.56,5.56,0,0,0-3.6,5.21v3.32A1.54,1.54,0,0,1,0,13.21v1.61H14.22V13.21A1.54,1.54,0,0,1,12.69,11.67ZM7.11,1.61a.58.58,0,0,1,.58.58.58.58,0,1,1-1.16,0A.58.58,0,0,1,7.11,1.61Zm-4,10.06V8.35a4,4,0,0,1,4-4h0a4,4,0,0,1,4,4v3.32a3.11,3.11,0,0,0,.41,1.54H2.75A3.21,3.21,0,0,0,3.15,11.67Z"/><path class="cls-1" d="M5.41,16.1a.64.64,0,0,1-.64-.64H3.16a2.26,2.26,0,1,0,4.51,0H6.05A.64.64,0,0,1,5.41,16.1Z"/></g></g></svg>