<svg xmlns="http://www.w3.org/2000/svg" viewBox="0 0 16.05 16.05"><defs><style>.cls-1{fill:#183863;fill-rule:evenodd;}</style></defs><title>close-blue</title><g id="Layer_2" data-name="Layer 2"><g id="Layer_1-2" data-name="Layer 1"><path class="cls-1" d="M13.7,2.35a8,8,0,0,0-11.35,0A8,8,0,0,0,13.7,13.7a8,8,0,0,0,0-11.35Zm-1,10.31a6.55,6.55,0,0,1-9.29,0A6.56,6.56,0,0,1,8,1.46a6.56,6.56,0,0,1,4.65,11.2Z"/><polygon class="cls-1" points="10.43 6.64 9.4 5.61 8.02 6.99 6.64 5.61 5.61 6.64 6.99 8.02 5.61 9.4 6.64 10.43 8.02 9.05 9.4 10.43 10.43 9.4 9.05 8.02 10.43 6.64"/></g></g></svg>