<svg xmlns="http://www.w3.org/2000/svg" viewBox="0 0 12.86 12.86"><defs><style>.cls-1{fill:#fff;fill-rule:evenodd;}</style></defs><title>disagree-white</title><g id="Layer_2" data-name="Layer 2"><g id="Layer_1-2" data-name="Layer 1"><path class="cls-1" d="M11,1.88a6.45,6.45,0,1,0,1.88,4.55A6.42,6.42,0,0,0,11,1.88Zm-.83,8.27a5.26,5.26,0,0,1-7.44,0,5.26,5.26,0,0,1,7.44-7.44,5.26,5.26,0,0,1,0,7.44Z"/><polygon class="cls-1" points="8.36 5.33 7.54 4.5 6.43 5.61 5.33 4.5 4.5 5.33 5.61 6.43 4.5 7.54 5.33 8.36 6.43 7.26 7.54 8.36 8.36 7.54 7.26 6.43 8.36 5.33"/></g></g></svg>