<svg xmlns="http://www.w3.org/2000/svg" viewBox="0 0 16 16"><defs><style>.cls-1{fill:none;}.cls-2{fill:#576583;}</style></defs><title>file</title><g id="Layer_2" data-name="Layer 2"><g id="Layer_1-2" data-name="Layer 1"><rect class="cls-1" width="16" height="16"/><path class="cls-2" d="M14,6v7.5A2.5,2.5,0,0,1,11.5,16h-6A2.5,2.5,0,0,1,3,13.5V3.5A2.5,2.5,0,0,1,5.5,1H9a2.41,2.41,0,0,1,1.71.71l2.58,2.58A2.41,2.41,0,0,1,14,6ZM10,6A1,1,0,0,1,9,5V3H5.5a.5.5,0,0,0-.5.5v10a.5.5,0,0,0,.5.5h6a.5.5,0,0,0,.5-.5V6ZM6,7V8h5V7ZM6,9v1h5V9Zm0,2v1h5V11Z"/></g></g></svg>