<svg xmlns="http://www.w3.org/2000/svg" viewBox="0 0 16.84 18.54"><defs><style>.cls-1{isolation:isolate;}.cls-2{opacity:0.6;mix-blend-mode:multiply;}.cls-3{fill:#fff;opacity:0;}.cls-4{fill:#fcfbfa;opacity:0.04;}.cls-5{fill:#f8f8f6;opacity:0.08;}.cls-6{fill:#f5f4f1;opacity:0.11;}.cls-7{fill:#f2f1ed;opacity:0.15;}.cls-8{fill:#eeede8;opacity:0.19;}.cls-9{fill:#ebeae4;opacity:0.23;}.cls-10{fill:#e8e6df;opacity:0.27;}.cls-11{fill:#e4e3da;opacity:0.3;}.cls-12{fill:#e1dfd6;opacity:0.34;}.cls-13{fill:#dedcd1;opacity:0.38;}.cls-14{fill:#dad8cd;opacity:0.42;}.cls-15{fill:#d7d5c8;opacity:0.46;}.cls-16{fill:#d4d1c4;opacity:0.5;}.cls-17{fill:#d0cebf;opacity:0.53;}.cls-18{fill:#cdcaba;opacity:0.57;}.cls-19{fill:#cac7b6;opacity:0.61;}.cls-20{fill:#c6c3b1;opacity:0.65;}.cls-21{fill:#c3c0ad;opacity:0.69;}.cls-22{fill:#c0bca8;opacity:0.72;}.cls-23{fill:#bcb9a4;opacity:0.76;}.cls-24{fill:#b9b59f;opacity:0.8;}.cls-25{fill:#fcfcfc;opacity:0.04;}.cls-26{fill:#f8f8f8;opacity:0.08;}.cls-27{fill:#f5f5f5;opacity:0.12;}.cls-28{fill:#f2f2f2;opacity:0.16;}.cls-29{fill:#eee;opacity:0.2;}.cls-30{fill:#ebebeb;opacity:0.24;}.cls-31{fill:#e8e8e8;opacity:0.28;}.cls-32{fill:#e4e4e4;opacity:0.32;}.cls-33{fill:#e1e1e1;opacity:0.36;}.cls-34{fill:#dedede;opacity:0.4;}.cls-35{fill:#dadada;opacity:0.45;}.cls-36{fill:#d7d7d7;opacity:0.49;}.cls-37{fill:#d4d4d4;opacity:0.53;}.cls-38{fill:#d0d0d0;opacity:0.57;}.cls-39{fill:#cdcdcd;opacity:0.61;}.cls-40{fill:#cacaca;opacity:0.65;}.cls-41{fill:#c6c6c6;opacity:0.69;}.cls-42{fill:#c3c3c3;opacity:0.73;}.cls-43{fill:silver;opacity:0.77;}.cls-44{fill:#bcbcbc;opacity:0.81;}.cls-45{fill:#b9b9b9;opacity:0.85;}.cls-46{fill:#eff3f4;}.cls-47{fill:#dbdfe0;}.cls-48{fill:#ed1c24;}.cls-49{fill:#f0f3f2;}</style></defs><title>FILEROOM_Asset 1</title><g class="cls-1"><g id="Layer_2" data-name="Layer 2"><g id="Layer_1-2" data-name="Layer 1"><g class="cls-2"><path class="cls-3" d="M13.72,17.23c0,.56-3.45.5-6,.5s-4.57-.25-4.57-.56,2-.58,4.57-.58S13.72,16.71,13.72,17.23Z"/><path class="cls-4" d="M13.48,17.22c0,.54-3.29.48-5.7.49s-4.36-.24-4.36-.55,2-.54,4.36-.55S13.48,16.73,13.48,17.22Z"/><path class="cls-5" d="M13.25,17.22c0,.51-3.13.46-5.43.46s-4.15-.23-4.15-.52,1.86-.52,4.15-.52S13.25,16.75,13.25,17.22Z"/><path class="cls-6" d="M13,17.22c0,.48-3,.43-5.15.43s-3.94-.21-3.94-.49,1.77-.49,3.94-.5S13,16.77,13,17.22Z"/><path class="cls-7" d="M12.77,17.21c0,.46-2.81.41-4.87.42s-3.73-.21-3.73-.47,1.67-.47,3.73-.47S12.77,16.79,12.77,17.21Z"/><path class="cls-8" d="M12.54,17.21c0,.43-2.65.39-4.6.39s-3.52-.2-3.52-.44,1.57-.44,3.52-.45S12.54,16.81,12.54,17.21Z"/><path class="cls-9" d="M12.3,17.2c0,.41-2.49.37-4.32.37s-3.32-.18-3.32-.41,1.49-.42,3.32-.42S12.3,16.83,12.3,17.2Z"/><path class="cls-10" d="M12.06,17.2c0,.38-2.32.34-4,.35s-3.11-.18-3.11-.39S6.3,16.77,8,16.77,12.06,16.85,12.06,17.2Z"/><path class="cls-11" d="M11.83,17.2c0,.35-2.17.32-3.77.32s-2.9-.16-2.9-.36,1.3-.37,2.9-.37S11.83,16.87,11.83,17.2Z"/><path class="cls-12" d="M11.59,17.19c0,.33-2,.3-3.49.3s-2.69-.15-2.69-.33,1.2-.34,2.69-.34S11.59,16.89,11.59,17.19Z"/><path class="cls-13" d="M11.35,17.19c0,.3-1.84.28-3.21.28a5.27,5.27,0,0,1-2.49-.31c0-.18,1.11-.32,2.49-.32S11.35,16.91,11.35,17.19Z"/><path class="cls-14" d="M11.12,17.18c0,.28-1.69.26-2.95.26a4.71,4.71,0,0,1-2.27-.29,4.93,4.93,0,0,1,2.27-.28C9.43,16.86,11.12,16.93,11.12,17.18Z"/><path class="cls-15" d="M10.88,17.18c0,.25-1.53.23-2.67.23s-2.06-.11-2.06-.26a4.35,4.35,0,0,1,2.06-.26C9.35,16.89,10.88,17,10.88,17.18Z"/><path class="cls-16" d="M10.64,17.18c0,.22-1.36.21-2.39.21a3.81,3.81,0,0,1-1.85-.24,3.88,3.88,0,0,1,1.85-.23C9.28,16.92,10.64,17,10.64,17.18Z"/><path class="cls-17" d="M10.41,17.17c0,.2-1.21.19-2.12.19s-1.65-.09-1.65-.21a3.51,3.51,0,0,1,1.65-.21C9.2,16.94,10.41,17,10.41,17.17Z"/><path class="cls-18" d="M10.17,17.17c0,.17-1,.16-1.84.16a3,3,0,0,1-1.44-.18A3,3,0,0,1,8.33,17C9.13,17,10.17,17,10.17,17.17Z"/><path class="cls-19" d="M9.93,17.16c0,.15-.88.15-1.56.15s-1.23-.07-1.23-.16S7.69,17,8.37,17,9.93,17,9.93,17.16Z"/><path class="cls-20" d="M9.7,17.16c0,.12-.73.12-1.29.12a2.12,2.12,0,0,1-1-.13,2.12,2.12,0,0,1,1-.13C9,17,9.7,17.05,9.7,17.16Z"/><path class="cls-21" d="M9.46,17.16c0,.09-.56.09-1,.09s-.82,0-.82-.1S8,17,8.45,17,9.46,17.07,9.46,17.16Z"/><path class="cls-22" d="M9.23,17.15c0,.07-.41.08-.74.08a1.28,1.28,0,0,1-.61-.08s.27-.08.61-.08S9.23,17.09,9.23,17.15Z"/><path class="cls-23" d="M9,17.15s-.25.05-.46.05-.4,0-.4-.05.18-.06.4-.06S9,17.11,9,17.15Z"/><path class="cls-24" d="M8.75,17.14s-.08,0-.19,0a.44.44,0,0,1-.18,0s.08,0,.18,0A.47.47,0,0,1,8.75,17.14Z"/><ellipse class="cls-3" cx="8.42" cy="17.1" rx="8.42" ry="1.44" transform="translate(-0.02 0.01) rotate(-0.06)"/><path class="cls-25" d="M16.48,17.09c0,.76-3.62,1.38-8.06,1.38s-8-.6-8-1.36,3.6-1.37,8-1.38S16.48,16.34,16.48,17.09Z"/><path class="cls-26" d="M16.12,17.1c0,.72-3.46,1.3-7.69,1.31S.77,17.83.77,17.11,4.2,15.8,8.43,15.8,16.12,16.38,16.12,17.1Z"/><path class="cls-27" d="M15.76,17.1c0,.68-3.3,1.24-7.33,1.24s-7.28-.54-7.28-1.23,3.26-1.24,7.28-1.25S15.76,16.41,15.76,17.1Z"/><path class="cls-28" d="M15.4,17.1c0,.65-3.15,1.18-7,1.18s-6.91-.52-6.91-1.17,3.1-1.17,6.91-1.18S15.4,16.45,15.4,17.1Z"/><path class="cls-29" d="M15,17.1c0,.61-3,1.11-6.58,1.12s-6.53-.49-6.53-1.11S4.84,16,8.45,16,15,16.49,15,17.1Z"/><path class="cls-30" d="M14.67,17.1c0,.58-2.82,1-6.22,1s-6.15-.46-6.15-1,2.75-1,6.15-1.05S14.67,16.53,14.67,17.1Z"/><path class="cls-31" d="M14.31,17.11c0,.54-2.66,1-5.85,1s-5.78-.44-5.78-1,2.59-1,5.78-1S14.31,16.57,14.31,17.11Z"/><path class="cls-32" d="M14,17.11c0,.5-2.51.91-5.49.91s-5.39-.4-5.39-.9,2.41-.92,5.39-.92S14,16.6,14,17.11Z"/><path class="cls-33" d="M13.59,17.11c0,.47-2.35.85-5.12.85s-5-.38-5-.84,2.25-.85,5-.85S13.59,16.64,13.59,17.11Z"/><path class="cls-34" d="M13.23,17.11c0,.43-2.19.78-4.76.78s-4.64-.34-4.64-.77,2.08-.79,4.64-.79S13.23,16.68,13.23,17.11Z"/><path class="cls-35" d="M12.87,17.11c0,.4-2,.72-4.39.72s-4.26-.32-4.26-.71,1.9-.72,4.26-.72S12.87,16.72,12.87,17.11Z"/><path class="cls-36" d="M12.51,17.11c0,.36-1.88.65-4,.66s-3.88-.29-3.88-.65,1.74-.65,3.88-.65S12.51,16.76,12.51,17.11Z"/><path class="cls-37" d="M12.15,17.12c0,.32-1.72.58-3.66.58S5,17.44,5,17.12s1.57-.59,3.51-.59S12.15,16.79,12.15,17.12Z"/><path class="cls-38" d="M11.79,17.12c0,.29-1.57.52-3.3.52s-3.13-.23-3.13-.52,1.41-.52,3.13-.52S11.79,16.83,11.79,17.12Z"/><path class="cls-39" d="M11.43,17.12c0,.25-1.41.45-2.93.45s-2.75-.2-2.75-.45S7,16.67,8.5,16.67,11.43,16.87,11.43,17.12Z"/><path class="cls-40" d="M11.07,17.12c0,.22-1.25.39-2.56.39s-2.38-.17-2.38-.39,1.06-.39,2.38-.39S11.07,16.91,11.07,17.12Z"/><path class="cls-41" d="M10.71,17.12c0,.18-1.1.32-2.2.32s-2-.14-2-.32.9-.32,2-.32S10.71,17,10.71,17.12Z"/><path class="cls-42" d="M10.35,17.13c0,.14-.94.25-1.83.25s-1.62-.11-1.62-.26.72-.25,1.62-.25S10.35,17,10.35,17.13Z"/><path class="cls-43" d="M10,17.13a3.5,3.5,0,0,1-1.47.19c-.68,0-1.24-.09-1.24-.19s.56-.2,1.24-.2S10,17,10,17.13Z"/><path class="cls-44" d="M9.63,17.13a3.08,3.08,0,0,1-1.1.12c-.48,0-.87-.05-.87-.12s.39-.13.87-.13A3,3,0,0,1,9.63,17.13Z"/><path class="cls-45" d="M9.27,17.13a2.78,2.78,0,0,1-.74.06,1,1,0,0,1-.48-.06s.21-.06.48-.06A3.31,3.31,0,0,1,9.27,17.13Z"/></g><path class="cls-46" d="M10.32,2.62V0H3.56a.47.47,0,0,0-.47.47V13.59a.58.58,0,0,0,.58.58h9.49a.58.58,0,0,0,.59-.58V3.32H11A.7.7,0,0,1,10.32,2.62Z"/><path class="cls-47" d="M10.32,0V2.78a.54.54,0,0,0,.54.54h2.89Z"/><path class="cls-48" d="M3.09,10H13.75a0,0,0,0,1,0,0v.83a3.31,3.31,0,0,1-3.31,3.31h-4a3.31,3.31,0,0,1-3.31-3.31V10a0,0,0,0,1,0,0Z"/><path class="cls-48" d="M8.27,3.25a2.11,2.11,0,0,1-.4-1A1,1,0,0,1,8,1.7c.24-.36.55,0,.56.29a4.66,4.66,0,0,1-.26,1.15L8,4.34c-.19.73-.37,1.46-.58,2.18a6,6,0,0,1-.83,1.9,1.22,1.22,0,0,1-.88.65.52.52,0,0,1-.48-.74c.15-.3.59-.4.88-.5l1.16-.41c.74-.25,1.49-.49,2.24-.71.34-.1.69-.21,1-.29a1.78,1.78,0,0,1,.56-.06c.25,0,.72.28.33.53s-.9,0-1.18-.31a4.48,4.48,0,0,1-.71-1C9.07,4.8,8.65,4,8.26,3.23c-.07-.16-.3,0-.23.13A29.63,29.63,0,0,0,9.6,6.23c.38.58,1.26,1.41,2,.84a.47.47,0,0,0,0-.78,1.34,1.34,0,0,0-1.09-.15c-.53.11-1,.29-1.56.45s-1,.32-1.56.49l-1.59.56a1.37,1.37,0,0,0-.88.61.83.83,0,0,0,.14.83.82.82,0,0,0,1,.17,2,2,0,0,0,.87-.88,6.16,6.16,0,0,0,.57-1.22c.34-1,.56-2,.83-3,.15-.6.34-1.19.46-1.79.08-.39,0-.92-.44-1s-.66.36-.71.71A2,2,0,0,0,8,3.38c.09.14.32,0,.23-.13Z"/><path class="cls-49" d="M5.64,10.93a4.3,4.3,0,0,1,.59,0,1.06,1.06,0,0,1,.68.19.67.67,0,0,1,.21.51.73.73,0,0,1-.19.51,1,1,0,0,1-.73.26.94.94,0,0,1-.25,0v1H5.64ZM6,12.09a.94.94,0,0,0,.25,0c.38,0,.61-.18.61-.51s-.23-.47-.57-.47a.93.93,0,0,0-.29,0Z"/><path class="cls-49" d="M7.53,10.93a6.32,6.32,0,0,1,.66,0,1.39,1.39,0,0,1,1,.29,1.11,1.11,0,0,1,.34.87,1.28,1.28,0,0,1-.34.93,1.51,1.51,0,0,1-1.06.34l-.57,0Zm.31,2.13h.32a.92.92,0,0,0,1-1,.86.86,0,0,0-1-.93,2.89,2.89,0,0,0-.37,0Z"/><path class="cls-49" d="M9.91,10.9H11.2v.26h-1V12h.9v.26h-.9V13.3H9.91Z"/></g></g></g></svg>