<svg xmlns="http://www.w3.org/2000/svg" viewBox="0 0 18.6 18.6"><defs><style>.cls-1{fill:#f15a29;}.cls-2{fill:none;}</style></defs><title>rooms</title><g id="Layer_2" data-name="Layer 2"><g id="Layer_1-2" data-name="Layer 1"><path class="cls-1" d="M15.69,5.83a2.62,2.62,0,1,0-5.23-.31v.75a1.7,1.7,0,0,0-2.32,0V5.52a2.62,2.62,0,1,0-5.23.31A3.77,3.77,0,0,0,1.16,9v3.78h0a3.77,3.77,0,0,0,7.53-.09,2,2,0,0,0,1.18,0,3.77,3.77,0,0,0,7.53.09h0V9A3.77,3.77,0,0,0,15.69,5.83ZM4.94,14.53a2,2,0,1,1,2-2A2,2,0,0,1,4.94,14.53ZM9.3,11a.58.58,0,1,1,.58-.58A.58.58,0,0,1,9.3,11Zm4.36,3.49a2,2,0,1,1,2-2A2,2,0,0,1,13.66,14.53Z"/><rect class="cls-2" width="18.6" height="18.6"/></g></g></svg>