<svg xmlns="http://www.w3.org/2000/svg" viewBox="0 0 20 20"><defs><style>.cls-1,.cls-2{fill:#fff;}.cls-1{fill-rule:evenodd;}</style></defs><title>Top_NavAsset 10</title><g id="Layer_2" data-name="Layer 2"><g id="Layer_1-2" data-name="Layer 1"><path class="cls-1" d="M17.08,2.93a10,10,0,1,0,0,14.15A10,10,0,0,0,17.08,2.93ZM15.79,15.79A8.18,8.18,0,1,1,4.22,4.22a8.17,8.17,0,0,1,11.57,0A8.19,8.19,0,0,1,15.79,15.79Z"/><path class="cls-1" d="M10,3.68A4.34,4.34,0,0,0,5.67,8H7.91A2.09,2.09,0,1,1,10,10.1H8.88V13h2.24v-.78a4.21,4.21,0,0,0,1.94-1.12A4.33,4.33,0,0,0,10,3.68Z"/><rect class="cls-2" x="8.88" y="14.09" width="2.24" height="2.24"/></g></g></svg>