<svg xmlns="http://www.w3.org/2000/svg" viewBox="0 0 20.68 20"><defs><style>.cls-1{fill:#fff;}</style></defs><title>Top_NavAsset 4</title><g id="Layer_2" data-name="Layer 2"><g id="Layer_1-2" data-name="Layer 1"><path class="cls-1" d="M20.6,10.14,17,6.57V3.44a.13.13,0,0,0-.14-.13h-1.8a.13.13,0,0,0-.14.13V4.49L10.54.08a.28.28,0,0,0-.4,0L.08,10.14a.28.28,0,0,0-.08.2.27.27,0,0,0,.08.19l1.61,1.61a.27.27,0,0,0,.19.08.28.28,0,0,0,.2-.08l8.26-8.26,8.26,8.26a.27.27,0,0,0,.39,0l1.61-1.61A.27.27,0,0,0,20.6,10.14Z"/><path class="cls-1" d="M10.54,5.4a.3.3,0,0,0-.4,0L3.38,12.16a.3.3,0,0,0-.08.2v7.36a.28.28,0,0,0,.28.28H17.1a.28.28,0,0,0,.28-.28V12.36a.27.27,0,0,0-.09-.2Zm-.46,12.5H7.43V15.25h2.65Zm0-3.12H7.43V12.14h2.65Zm3.16,3.12H10.6V15.25h2.64Zm0-3.12H10.6V12.14h2.64Z"/></g></g></svg>