<svg xmlns="http://www.w3.org/2000/svg" viewBox="0 0 5.82 5.82"><defs><style>.cls-1{fill:#231f20;}.cls-2{fill:#be1e2d;fill-rule:evenodd;}</style></defs><title>uncheck</title><g id="Layer_2" data-name="Layer 2"><g id="Layer_1-2" data-name="Layer 1"><path class="cls-1" d="M5.26,2.37a2.35,2.35,0,0,1,.06.54A2.41,2.41,0,1,1,2.91.5a2.36,2.36,0,0,1,1.72.72L5,.87A2.87,2.87,0,0,0,2.91,0,2.92,2.92,0,1,0,5.66,2Z"/><polygon class="cls-2" points="4.21 2.17 3.65 1.61 2.91 2.35 2.17 1.61 1.61 2.17 2.35 2.91 1.61 3.65 2.17 4.21 2.91 3.46 3.65 4.21 4.21 3.65 3.46 2.91 4.21 2.17"/></g></g></svg>