<svg xmlns="http://www.w3.org/2000/svg" viewBox="0 0 69.49 94.05"><defs><style>.cls-1{fill:#939598;}.cls-2{fill:#1b75bc;}.cls-3{fill:#183863;}</style></defs><title>logo</title><g id="Layer_2" data-name="Layer 2"><g id="Layer_1-2" data-name="Layer 1"><path class="cls-1" d="M58.85,19.84a40.09,40.09,0,0,0-6-5.4A40.82,40.82,0,0,0,21.78,6.8,40.75,40.75,0,0,0,4.94,13.43c1.61.09,3.21-.15,4.83-.09A36.33,36.33,0,0,1,25.1,16.71,35.47,35.47,0,0,1,38,27.7a3.43,3.43,0,0,0,1.07,1,51,51,0,0,0,9,4.21A20.69,20.69,0,0,1,35,28.17a5.48,5.48,0,0,0-2.4-1.38,2.38,2.38,0,0,0-2.27.81,1.7,1.7,0,0,0-.42,1,2.39,2.39,0,0,0,1.42,2.3c9.2,4.22,15,4.73,18.57,3.75a7.66,7.66,0,0,0,5-10.42A33,33,0,0,0,52.57,20a10.79,10.79,0,0,1,5.11,2.88,10.34,10.34,0,0,1,2.83,5.19A28,28,0,0,0,58.85,19.84Z"/><path class="cls-2" d="M55.94,39.13A29.62,29.62,0,0,1,46,43.24,19.58,19.58,0,0,0,55.94,39.13Z"/><path class="cls-3" d="M68.45,38.32a41,41,0,0,0-9.6-18.48,28,28,0,0,1,1.66,8.21,10.06,10.06,0,0,1-2.58,9.48,17.65,17.65,0,0,1-2,1.6A19.58,19.58,0,0,1,46,43.24s2.59,7.63-1.33,9.77c2.47,4,5.87,7.36,9,10.89-1.57,2.5-3.39,5.14-6.26,6.26a7.73,7.73,0,0,1-4.66.33c-.66-2.41-1.53-4.93-3.43-6.66.44,1.31,1.26,2.47,1.63,3.81a10.11,10.11,0,0,1,.28,3.25c-1.19.45-2.35,1-3.57,1.37a13.14,13.14,0,0,0-4.49-8.71c-3.09-2.48-7.12-3.13-10.85-4.1-.77-.24-1.8-.21-2.17-1.06-2.12-3.45-1.63-7.7-.77-11.46a10.77,10.77,0,0,0-3,6.92c-.13,3.19,1.33,6.13,2.8,8.86-7.76,2.8-14,8.54-19.21,14.82A42,42,0,0,0,21.59,88.17a41.88,41.88,0,0,0,19.13-1.41A41.24,41.24,0,0,0,68.45,38.32Z"/><path class="cls-1" d="M11.38,28c3.89,1.42,7.65,3.19,11.49,4.73a39.37,39.37,0,0,1-6.66-.83,23.56,23.56,0,0,0,5.54,8.61c-3.34-.92-5.82-3.62-7.56-6.49A32,32,0,0,1,11.38,28Z"/><path class="cls-3" d="M42.39,48.57c-.08-.27-.17-.54-.27-.8A14.29,14.29,0,0,0,37.88,42,7.32,7.32,0,0,0,38,47.36c2,4.48,5.28,3.79,5.28,3.79Z"/><rect class="cls-3" x="18.99" y="85.05" width="10.05" height="6.02" rx="1.52" ry="1.52" transform="translate(113.72 71.18) rotate(94.6)"/><rect class="cls-3" x="29.71" y="85.91" width="10.05" height="6.02" rx="1.52" ry="1.52" transform="translate(126.15 61.44) rotate(94.6)"/><rect class="cls-1" x="25.67" y="2.12" width="10.05" height="6.02" rx="1.52" ry="1.52" transform="translate(38.27 -25.05) rotate(94.6)"/><rect class="cls-1" x="36.38" y="2.99" width="10.05" height="6.02" rx="1.52" ry="1.52" transform="translate(50.7 -34.8) rotate(94.6)"/></g></g></svg>