<svg xmlns="http://www.w3.org/2000/svg" viewBox="0 0 21.5 21.5"><defs><style>.cls-1,.cls-2{fill:#fff;}.cls-2{fill-rule:evenodd;}.cls-3{fill:none;stroke:#fff;stroke-miterlimit:10;stroke-width:1.5px;}</style></defs><title>logout-white</title><g id="Layer_2" data-name="Layer 2"><g id="Layer_1-2" data-name="Layer 1"><rect class="cls-1" x="10.16" y="4.75" width="1.75" height="6.77" rx="0.76" ry="0.76"/><path class="cls-2" d="M16.63,11v.11a5.45,5.45,0,0,1-.19,1.13,5.82,5.82,0,0,1-2.72,3.7,6,6,0,0,1-2.88.84,5.38,5.38,0,0,1-1.49-.18,5.81,5.81,0,0,1-3.1-1.91A5.94,5.94,0,0,1,4.86,11,5,5,0,0,1,5,9.69,5.81,5.81,0,0,1,7.07,6.4,6.19,6.19,0,0,1,9.15,5.31v1.4a5.1,5.1,0,0,0-2.1,1.64,4.26,4.26,0,0,0-.77,2.21,4.67,4.67,0,0,0,.11,1.49A4.38,4.38,0,0,0,8,14.52a4.47,4.47,0,0,0,2.94,1,4.8,4.8,0,0,0,1-.12,4.34,4.34,0,0,0,1.85-.94,4.75,4.75,0,0,0,1.1-1.34,4.35,4.35,0,0,0,.52-1.8A5,5,0,0,0,15.29,10a4.42,4.42,0,0,0-1.63-2.63,8.71,8.71,0,0,0-1-.61V5.37A5.36,5.36,0,0,1,15.88,8a5.79,5.79,0,0,1,.72,2.3,3.73,3.73,0,0,1,0,.47C16.64,10.87,16.63,10.91,16.63,11Z"/><circle class="cls-3" cx="10.75" cy="10.75" r="10"/></g></g></svg>