<svg xmlns="http://www.w3.org/2000/svg" viewBox="0 0 22.17 30"><defs><style>.cls-1{fill:#fff;}.cls-2{fill:#1b75bb;}</style></defs><title>Top_NavAsset 12</title><g id="Layer_2" data-name="Layer 2"><g id="Layer_1-2" data-name="Layer 1"><path class="cls-1" d="M18.77,6.33a11.91,11.91,0,0,0-1.9-1.72A13,13,0,0,0,7,2.17,13,13,0,0,0,1.58,4.28c.51,0,1,0,1.54,0A11.66,11.66,0,0,1,8,5.33a11.32,11.32,0,0,1,4.11,3.51,1.26,1.26,0,0,0,.34.31,16.76,16.76,0,0,0,2.88,1.34A6.62,6.62,0,0,1,11.15,9a1.75,1.75,0,0,0-.76-.45.77.77,0,0,0-.73.27.51.51,0,0,0-.13.33.77.77,0,0,0,.45.73c2.93,1.35,4.77,1.51,5.93,1.19a2.44,2.44,0,0,0,1.58-3.32,10.53,10.53,0,0,0-.72-1.37,3.54,3.54,0,0,1,1.63.92A3.31,3.31,0,0,1,19.3,9,8.68,8.68,0,0,0,18.77,6.33Z"/><path class="cls-2" d="M17.84,12.48a9.49,9.49,0,0,1-3.15,1.31A6.18,6.18,0,0,0,17.84,12.48Z"/><path class="cls-1" d="M21.84,12.22a13.16,13.16,0,0,0-3.07-5.89A8.68,8.68,0,0,1,19.3,9a3.19,3.19,0,0,1-.82,3,5.11,5.11,0,0,1-.64.51,6.18,6.18,0,0,1-3.15,1.31s.82,2.44-.43,3.12a26.37,26.37,0,0,0,2.86,3.47,4.53,4.53,0,0,1-2,2,2.45,2.45,0,0,1-1.49.1,4.36,4.36,0,0,0-1.09-2.12c.14.42.4.79.52,1.21a3.3,3.3,0,0,1,.08,1c-.37.15-.75.32-1.13.44a4.24,4.24,0,0,0-1.43-2.78A8.92,8.92,0,0,0,7.12,19c-.24-.07-.57-.06-.69-.34A4.85,4.85,0,0,1,6.18,15a3.44,3.44,0,0,0-.94,2.21A5.49,5.49,0,0,0,6.13,20,14.68,14.68,0,0,0,0,24.73a13.25,13.25,0,0,0,6.89,3.39,13.4,13.4,0,0,0,6.1-.44,13.18,13.18,0,0,0,8.85-15.46Z"/><path class="cls-1" d="M3.63,9c1.24.45,2.44,1,3.67,1.5a12.65,12.65,0,0,1-2.13-.26,7.52,7.52,0,0,0,1.77,2.75,4.33,4.33,0,0,1-2.41-2.08A9.79,9.79,0,0,1,3.63,9Z"/><path class="cls-1" d="M13.52,15.49a1.25,1.25,0,0,0-.09-.25,4.49,4.49,0,0,0-1.35-1.85,2.38,2.38,0,0,0,.05,1.72c.63,1.43,1.68,1.21,1.68,1.21Z"/><rect class="cls-1" x="6.06" y="27.13" width="3.2" height="1.92" rx="0.48" transform="translate(36.27 22.71) rotate(94.6)"/><rect class="cls-1" x="9.48" y="27.4" width="3.2" height="1.92" rx="0.48" transform="matrix(-0.08, 1, -1, -0.08, 40.24, 19.6)"/><rect class="cls-1" x="8.19" y="0.68" width="3.2" height="1.92" rx="0.48" transform="translate(12.21 -7.99) rotate(94.6)"/><rect class="cls-1" x="11.6" y="0.95" width="3.2" height="1.92" rx="0.48" transform="translate(16.17 -11.1) rotate(94.6)"/></g></g></svg>