<svg xmlns="http://www.w3.org/2000/svg" viewBox="0 0 10 10"><defs><style>.cls-1{fill:#183863;}</style></defs><title>search-blue</title><g id="Layer_2" data-name="Layer 2"><g id="Layer_1-2" data-name="Layer 1"><path class="cls-1" d="M9.57,7.51,7.92,5.86a4.13,4.13,0,0,0-.84-4.64,4.14,4.14,0,0,0-5.87,0A4.15,4.15,0,0,0,5.86,7.93L7.5,9.57a1.46,1.46,0,0,0,1,.43,1.46,1.46,0,0,0,1-2.49ZM1.86,6.44a3.24,3.24,0,1,1,5.08-.65A2.2,2.2,0,0,1,6.77,6a.36.36,0,0,1-.07.1,3.73,3.73,0,0,1-.26.3l-.3.27-.09.06A1.67,1.67,0,0,1,5.77,7L5.68,7h0a3.17,3.17,0,0,1-1.52.38A3.21,3.21,0,0,1,1.86,6.44ZM8.93,8.93a.56.56,0,0,1-.78,0L6.67,7.45l0,0a3.8,3.8,0,0,0,.37-.33,3.8,3.8,0,0,0,.33-.37l0,0L8.93,8.15a.56.56,0,0,1,0,.78Z"/><path class="cls-1" d="M1.36,4.15h.91A1.88,1.88,0,0,1,4.15,2.27V1.36a2.74,2.74,0,0,0-2,.82A2.77,2.77,0,0,0,1.36,4.15Z"/></g></g></svg>