<svg xmlns="http://www.w3.org/2000/svg" viewBox="0 0 13.68 13.68"><defs><style>.cls-1{fill:#fff;}</style></defs><title>search</title><g id="Layer_2" data-name="Layer 2"><g id="Layer_1-2" data-name="Layer 1"><path class="cls-1" d="M13.1,10.27,10.84,8A5.68,5.68,0,1,0,1.66,9.69,5.66,5.66,0,0,0,8,10.85l2.25,2.25a2,2,0,0,0,2.83,0,2,2,0,0,0,0-2.83ZM2.54,8.81a4.43,4.43,0,1,1,7-.88,4,4,0,0,1-.22.34,1.13,1.13,0,0,1-.1.13,4.59,4.59,0,0,1-.36.41,4.72,4.72,0,0,1-.41.37l-.12.08a3.77,3.77,0,0,1-.39.26l-.12.07h0a4.43,4.43,0,0,1-5.22-.78Zm9.68,3.41a.79.79,0,0,1-1.07,0l-2-2,.06,0a5.43,5.43,0,0,0,.51-.46,5.47,5.47,0,0,0,.45-.51l0,0,2,2a.76.76,0,0,1,0,1.07Z"/><path class="cls-1" d="M1.86,5.68H3.11A2.56,2.56,0,0,1,5.68,3.11V1.87A3.81,3.81,0,0,0,1.86,5.68Z"/></g></g></svg>