<svg xmlns="http://www.w3.org/2000/svg" viewBox="0 0 18.6 18.6"><defs><style>.cls-1{fill:#414042;}</style></defs><title>kyc-approval</title><g id="Layer_2" data-name="Layer 2"><g id="Layer_1-2" data-name="Layer 1"><path class="cls-1" d="M17.81,14,14.74,10.9A7.72,7.72,0,1,0,2.26,13.18a7.71,7.71,0,0,0,8.64,1.57L14,17.81A2.72,2.72,0,0,0,17.81,14ZM3.45,12a6,6,0,1,1,9.45-1.2c-.09.16-.19.31-.3.47l-.13.17A4.37,4.37,0,0,1,12,12c-.18.18-.37.34-.56.5l-.16.11a6.06,6.06,0,0,1-.53.35l-.17.1h0a5.88,5.88,0,0,1-2.83.71A6,6,0,0,1,3.45,12Zm13.16,4.63a1,1,0,0,1-1.45,0L12.4,13.86l.07-.07a8.17,8.17,0,0,0,.71-.61,8,8,0,0,0,.61-.7l.06-.07,2.76,2.75a1,1,0,0,1,0,1.45Z"/><path class="cls-1" d="M2.53,7.72H4.22a3.5,3.5,0,0,1,3.5-3.49V2.54A5.19,5.19,0,0,0,2.53,7.72Z"/></g></g></svg>