<svg xmlns="http://www.w3.org/2000/svg" viewBox="0 0 6 6"><defs><style>.cls-1{fill:#fff;}</style></defs><title>sign</title><g id="Layer_2" data-name="Layer 2"><g id="Layer_1-2" data-name="Layer 1"><path class="cls-1" d="M4.5,4.53V5.72a.09.09,0,0,1-.09.09H.28a.09.09,0,0,1-.09-.09V.28A.09.09,0,0,1,.28.19H3.37v1a.1.1,0,0,0,.1.09h1V2.63h0l.17-.31V1.22a.09.09,0,0,0,0-.07L3.53,0a.07.07,0,0,0-.06,0H.28A.29.29,0,0,0,0,.28V5.72A.29.29,0,0,0,.28,6H4.41a.29.29,0,0,0,.28-.28V4.19l-.14.26ZM3.56.32l.81.8H3.56Z"/><path class="cls-1" d="M.84,1.32H2.72a.1.1,0,0,0,.09-.1.09.09,0,0,0-.09-.09H.84a.09.09,0,0,0-.09.09A.1.1,0,0,0,.84,1.32Z"/><path class="cls-1" d="M3.84,1.69h-3a.09.09,0,0,0-.09.09.09.09,0,0,0,.09.1h3a.1.1,0,0,0,.1-.1A.1.1,0,0,0,3.84,1.69Z"/><path class="cls-1" d="M3.84,2.25h-3a.09.09,0,0,0-.09.1.09.09,0,0,0,.09.09h3a.1.1,0,0,0,.1-.09A.1.1,0,0,0,3.84,2.25Z"/><path class="cls-1" d="M3.94,2.91a.1.1,0,0,0-.1-.09h-3A.09.09,0,1,0,.84,3h3A.1.1,0,0,0,3.94,2.91Z"/><path class="cls-1" d="M.84,3.38a.09.09,0,0,0,0,.18H2.77a.09.09,0,1,0,0-.18Z"/><path class="cls-1" d="M5.86,1.66h0L6,1.47a.1.1,0,0,0,0-.14l-.06,0L6,1.09a.1.1,0,0,0,0-.14h0A.11.11,0,0,0,5.78,1l-.11.21,0,0h0a.12.12,0,0,0-.09.05L4.69,2.7h0L5.14,3l.59-1.09a.48.48,0,0,1,0,.44l-.49.92a.1.1,0,0,0,0,.14h0a.11.11,0,0,0,.09-.06l.5-.91A.8.8,0,0,0,5.86,1.66Z"/><path class="cls-1" d="M4.59,2.89l-.09.16L3.92,4.11h0A2.61,2.61,0,0,0,3.7,5H3.6L3.5,5a2.2,2.2,0,0,1-.37,0c-.18,0-.27-.06-.27-.17a.25.25,0,0,1,0-.07c0-.05,0-.12,0-.16a.07.07,0,0,0-.06,0,.47.47,0,0,0-.14,0,1.68,1.68,0,0,0-.29.2l-.08.07c-.08.09-.19.19-.28.19s0,0,0,0S2,5,2.15,4.7h0l0,0c.12-.17.19-.3.13-.35l-.08,0a1,1,0,0,0-.4.18h0c-.15.09-.28.19-.42.29L1.08,5a.35.35,0,0,1-.19.08S.84,5.06.83,5a.3.3,0,0,1,.08-.2.47.47,0,0,1,.28-.17s.12-.07.12-.11,0,0,0,0h0a.7.7,0,0,0-.55.4c-.06.11,0,.17,0,.21a.16.16,0,0,0,.15.07l.14,0a2.63,2.63,0,0,0,.52-.35h0l.27-.2a1.5,1.5,0,0,1,.38-.19.38.38,0,0,1-.09.18h0l0,0,0,.06H2c-.09.14-.22.32-.17.47a.1.1,0,0,0,.11.07.79.79,0,0,0,.4-.22h0a1.19,1.19,0,0,1,.39-.26h0a.29.29,0,0,1,0,.09.2.2,0,0,0,.06.24.48.48,0,0,0,.29.08,1.52,1.52,0,0,0,.42-.07l.1,0h0l.06,0a2.85,2.85,0,0,0,.7-.7h0l.12-.22.19-.34.36-.66-.36-.2Z"/></g></g></svg>