<svg xmlns="http://www.w3.org/2000/svg" viewBox="0 0 25.6 28.8"><defs><style>.cls-1{fill:#fff;}</style></defs><title>upload-white</title><g id="Layer_2" data-name="Layer 2"><g id="Layer_1-2" data-name="Layer 1"><path class="cls-1" d="M22.4,21.33H3.2A3.2,3.2,0,0,0,0,24.53V25.6a3.2,3.2,0,0,0,3.2,3.2H22.4a3.2,3.2,0,0,0,3.2-3.2V24.53A3.2,3.2,0,0,0,22.4,21.33ZM21,8.26,14.68.9a2.41,2.41,0,0,0-3.76,0L4.62,8.26a1.45,1.45,0,0,0,.93,2.41h3v4.26c0,2.14.39,3.2,2.14,3.2h4.26c1.75,0,2.14-1.06,2.14-3.2V10.67h3A1.45,1.45,0,0,0,21,8.26Zm-.18,18.4a1.6,1.6,0,1,1,1.6-1.6A1.6,1.6,0,0,1,20.8,26.66Z"/></g></g></svg>