<svg xmlns="http://www.w3.org/2000/svg" viewBox="0 0 19.24 20"><defs><style>.cls-1{fill:#e6e6e6;}.cls-2{fill:#fff;}</style></defs><title>Top_NavAsset 8</title><g id="Layer_2" data-name="Layer 2"><g id="Layer_1-2" data-name="Layer 1"><circle class="cls-1" cx="16.05" cy="5.54" r="2.66" transform="translate(2.94 16.32) rotate(-58.46)"/><circle class="cls-1" cx="3.19" cy="5.54" r="2.66" transform="translate(-3.2 5.36) rotate(-58.46)"/><path class="cls-1" d="M16.05,8.84a3.17,3.17,0,0,0-2.12.82,4.45,4.45,0,0,1,.32,1.68V19h5V12A3.2,3.2,0,0,0,16.05,8.84Z"/><path class="cls-1" d="M0,12v7H5.07v-7.7a4.63,4.63,0,0,1,.3-1.63A3.18,3.18,0,0,0,0,12Z"/><path class="cls-2" d="M9.66,7.39a4,4,0,0,0-3.95,4V20h7.9V11.34A4,4,0,0,0,9.66,7.39Z"/><circle class="cls-2" cx="9.66" cy="3.29" r="3.29" transform="matrix(0.95, -0.31, 0.31, 0.95, -0.54, 3.12)"/></g></g></svg>