<svg xmlns="http://www.w3.org/2000/svg" viewBox="0 0 18.6 14.91"><defs><style>.cls-1{fill:#293d42;}</style></defs><title>manage-accounts</title><g id="Layer_2" data-name="Layer 2"><g id="Layer_1-2" data-name="Layer 1"><path class="cls-1" d="M3.23,5.79A2.31,2.31,0,0,1,3.9,4.16a2.35,2.35,0,0,1,2.53-.49L7,2.25a3.83,3.83,0,0,0-4.2.83,3.8,3.8,0,0,0-.7,4.46,3.6,3.6,0,0,0-1.07.74A3.53,3.53,0,0,0,0,10.8v4.11H1.54V10.8a2,2,0,0,1,.59-1.43,2,2,0,0,1,1-.55,3.85,3.85,0,0,0,2.36.81V8.09a2.3,2.3,0,0,1-2.3-2.3Z"/><path class="cls-1" d="M16.09,6.42a4.22,4.22,0,0,0,.54-2.09A4.33,4.33,0,1,0,8.52,6.42,4,4,0,0,0,6,10.14v4.77H7.55V10.14A2.47,2.47,0,0,1,9.61,7.71a4.33,4.33,0,0,0,2.7,1,4.28,4.28,0,0,0,2.7-1,2.48,2.48,0,0,1,2,2.44v4.77H18.6V10.14A4,4,0,0,0,16.09,6.42Zm-3.78.7A2.79,2.79,0,1,1,15.1,4.33,2.79,2.79,0,0,1,12.31,7.12Z"/></g></g></svg>