<svg xmlns="http://www.w3.org/2000/svg" xmlns:xlink="http://www.w3.org/1999/xlink" viewBox="0 0 20.61 20.61"><defs><style>.cls-1{fill:url(#Degradado_sin_nombre);}</style><linearGradient id="Degradado_sin_nombre" y1="-1435.12" x2="20.61" y2="-1435.12" gradientTransform="matrix(1, 0, 0, -1, 0, -1424.82)" gradientUnits="userSpaceOnUse"><stop offset="0" stop-color="#69cce1"/><stop offset="0.02" stop-color="#68cbe2"/><stop offset="0.29" stop-color="#47c8f1"/><stop offset="0.55" stop-color="#58b9e9"/><stop offset="0.8" stop-color="#63abde"/><stop offset="1" stop-color="#65a5da"/></linearGradient></defs><title>add-user</title><g id="Layer_2" data-name="Layer 2"><g id="Layer_1-2" data-name="Layer 1"><path class="cls-1" d="M12.36,19H2.44a.82.82,0,0,1-.64-.3A.86.86,0,0,1,1.63,18a8.89,8.89,0,0,1,8.46-7h.43a8.72,8.72,0,0,1,3.59.85.8.8,0,0,0,1.07-.38.81.81,0,0,0-.38-1.08,11.27,11.27,0,0,0-1.21-.48A5.48,5.48,0,1,0,7,9.86a10.32,10.32,0,0,0-3.37,1.86A10.53,10.53,0,0,0,.05,17.66a2.45,2.45,0,0,0,2.39,2.95h9.92a.81.81,0,1,0,0-1.61ZM6.44,5.48A3.87,3.87,0,1,1,10.5,9.34h-.39A3.88,3.88,0,0,1,6.44,5.48ZM20.61,16.79a.8.8,0,0,1-.8.8H17.59v2.22a.81.81,0,0,1-1.61,0V17.59H13.77a.81.81,0,1,1,0-1.61H16V13.77a.81.81,0,1,1,1.61,0V16h2.22A.8.8,0,0,1,20.61,16.79Z"/></g></g></svg>