<svg xmlns="http://www.w3.org/2000/svg" xmlns:xlink="http://www.w3.org/1999/xlink" viewBox="0 0 42.41 36.65"><defs><style>.cls-1,.cls-2{fill-rule:evenodd;}.cls-1{fill:url(#Dégradé_sans_nom_18);}.cls-2{fill:url(#Eau_7);}</style><linearGradient id="Dégradé_sans_nom_18" x1="6.94" y1="3.12" x2="28.39" y2="28.68" gradientUnits="userSpaceOnUse"><stop offset="0" stop-color="#4e4e4e"/><stop offset="1" stop-color="#1a1a1a"/></linearGradient><linearGradient id="Eau_7" x1="26.68" y1="20.92" x2="39.09" y2="35.71" gradientUnits="userSpaceOnUse"><stop offset="0" stop-color="#69aee0"/><stop offset="0.1" stop-color="#60acdf"/><stop offset="0.27" stop-color="#46a5db"/><stop offset="0.48" stop-color="#1d9ad6"/><stop offset="0.58" stop-color="#0794d3"/><stop offset="1" stop-color="#0580c4"/></linearGradient></defs><title>feature-communicate</title><g id="Layer_2" data-name="Layer 2"><g id="Layer_1-2" data-name="Layer 1"><path class="cls-1" d="M16.3,28.92l.08,0,.12-.05h0l1.1-.44h.05s1.13,0,2.47,0a22,22,0,0,0,2.56-.14,24.6,24.6,0,0,0,7.49-2,18.11,18.11,0,0,0,5.91-4.14,13.22,13.22,0,0,0,2.13-3h0a20.89,20.89,0,0,0,1-3.26c0-.21.06-.41.08-.63A10.2,10.2,0,0,0,38,9a16.33,16.33,0,0,0-1.39-2,16.72,16.72,0,0,0-5.23-4.18A24.48,24.48,0,0,0,22.12.12,26.43,26.43,0,0,0,13,.85,20.65,20.65,0,0,0,4.77,5a13.76,13.76,0,0,0-3.37,4,10.4,10.4,0,0,0-.47,9.52A13.37,13.37,0,0,0,5,23.63c.39.32.79.61,1.25,1-.16.82-.31,1.59-.45,2.36-.29,1.46-.59,2.92-.84,4.38a1.68,1.68,0,0,0,1.23,2A2.24,2.24,0,0,0,8,33.07c2.78-1.38,5.57-2.75,8.35-4.15Zm-3.87-2L10.07,28l-.64.28c.21-1.09.38-2,.55-2.91.08-.41.17-.8.25-1.21a1.76,1.76,0,0,0-.85-1.94C8.67,21.8,8,21.32,7.3,20.8a9.53,9.53,0,0,1-2.1-2.33,7.65,7.65,0,0,1-1.33-4,7.12,7.12,0,0,1,.72-3.39,10.34,10.34,0,0,1,3-3.64,16,16,0,0,1,5.82-2.95,22.15,22.15,0,0,1,14.91.77A14,14,0,0,1,32.92,8.3a9.42,9.42,0,0,1,1.89,2.62,7.34,7.34,0,0,1,0,6.51,10.09,10.09,0,0,1-2.63,3.35,15.4,15.4,0,0,1-4.51,2.64,22,22,0,0,1-10,1.34,2.93,2.93,0,0,0-1.6.31Z"/><path class="cls-2" d="M39.51,16.41a14.08,14.08,0,0,1-1,3,5.85,5.85,0,0,1,.53.91,5.31,5.31,0,0,1,.53,2.48,5.66,5.66,0,0,1-1,2.94,7.33,7.33,0,0,1-1.54,1.7,17.93,17.93,0,0,1-1.52,1.06A1.3,1.3,0,0,0,34.93,30c.06.29.13.58.18.87.13.67.25,1.34.4,2.13l-.46-.2-1.73-.84-2.7-1.33a2.13,2.13,0,0,0-1.17-.23,16,16,0,0,1-7.29-1c-.43-.17-.85-.37-1.26-.58a5.25,5.25,0,0,0-.65,0c-1.19,0-2.35.09-2.58.08l-.8.32a13.61,13.61,0,0,0,3.48,2.26,18.47,18.47,0,0,0,5.47,1.47,21,21,0,0,0,3.07.08,2.62,2.62,0,0,1,1.34.31c2.11,1.06,4.24,2.1,6.36,3.15a1.62,1.62,0,0,0,1.29.16,1.22,1.22,0,0,0,.9-1.42c-.18-1.08-.4-2.14-.61-3.21-.11-.56-.21-1.13-.33-1.73.34-.25.63-.46.91-.69a9.86,9.86,0,0,0,3-3.79,7.62,7.62,0,0,0-.34-6.95A9.88,9.88,0,0,0,39.51,16.41Z"/></g></g></svg>