<svg xmlns="http://www.w3.org/2000/svg" viewBox="0 0 6.24 6.24"><defs><style>.cls-1,.cls-2{fill:#293d42;}.cls-1{fill-rule:evenodd;}</style></defs><title>clock</title><g id="Layer_2" data-name="Layer 2"><g id="Layer_1-2" data-name="Layer 1"><path class="cls-1" d="M3.12,0A3.12,3.12,0,1,0,6.24,3.12,3.12,3.12,0,0,0,3.12,0Zm0,5.67A2.55,2.55,0,1,1,5.67,3.12,2.55,2.55,0,0,1,3.12,5.67Z"/><polygon class="cls-1" points="4.94 2.27 4.58 1.83 3.09 3.04 2.52 2.34 2.08 2.7 3.01 3.84 4.94 2.27"/><rect class="cls-2" x="2.83" y="4.76" width="0.57" height="0.57"/><rect class="cls-2" x="4.76" y="2.83" width="0.57" height="0.57"/><rect class="cls-2" x="0.91" y="2.83" width="0.57" height="0.57"/><rect class="cls-2" x="2.83" y="0.91" width="0.57" height="0.57"/></g></g></svg>