<svg xmlns="http://www.w3.org/2000/svg" viewBox="0 0 29.41 29.41"><defs><style>.cls-1{fill:#fff;fill-rule:evenodd;}</style></defs><title>close</title><g id="Layer_2" data-name="Layer 2"><g id="Layer_1-2" data-name="Layer 1"><path class="cls-1" d="M25.1,4.31a14.69,14.69,0,0,0-20.79,0,14.69,14.69,0,0,0,0,20.79,14.71,14.71,0,0,0,25.1-10.4A14.58,14.58,0,0,0,25.1,4.31Zm-1.89,18.9a12,12,0,0,1-17,0,12,12,0,0,1,0-17,12,12,0,0,1,20.53,8.5A12,12,0,0,1,23.21,23.21Z"/><polygon class="cls-1" points="19.12 12.18 17.23 10.29 14.7 12.81 12.18 10.29 10.29 12.18 12.81 14.7 10.29 17.23 12.18 19.12 14.7 16.59 17.23 19.12 19.12 17.23 16.59 14.7 19.12 12.18"/></g></g></svg>