<svg xmlns="http://www.w3.org/2000/svg" viewBox="0 0 18 12.29"><defs><style>.cls-1{fill:#293d42;}</style></defs><title>download</title><g id="Layer_2" data-name="Layer 2"><g id="Layer_1-2" data-name="Layer 1"><path class="cls-1" d="M14.33,3.85A6,6,0,0,0,2.78,5.31,3.37,3.37,0,0,0,3.36,12h3V10.54h-3a1.92,1.92,0,1,1,0-3.83h.8V6a4.55,4.55,0,0,1,8.93-1.23l.15.52h.66a2.64,2.64,0,1,1,0,5.27H11.64V12h2.28a4.08,4.08,0,0,0,.41-8.14Z"/><polygon class="cls-1" points="9.72 9.52 9.72 6.97 8.28 6.97 8.28 9.52 7.5 8.75 6.48 9.77 9 12.29 11.52 9.77 10.5 8.75 9.72 9.52"/></g></g></svg>