<svg xmlns="http://www.w3.org/2000/svg" viewBox="0 0 13.14 15.33"><defs><style>.cls-1{fill:#d1d3d4;}</style></defs><title>download-white</title><g id="Layer_2" data-name="Layer 2"><g id="Layer_1-2" data-name="Layer 1"><path class="cls-1" d="M13.14,12.59v1.1a1.65,1.65,0,0,1-1.64,1.64H1.64A1.65,1.65,0,0,1,0,13.69v-1.1A1.65,1.65,0,0,1,1.64,11H11.5A1.65,1.65,0,0,1,13.14,12.59ZM10.29,4.38H8.76V1.64C8.76.55,8.56,0,7.67,0H5.48c-.9,0-1.1.55-1.1,1.64V4.38H2.85a.74.74,0,0,0-.48,1.23L5.6,9.39a1.24,1.24,0,0,0,1.94,0l3.23-3.78A.74.74,0,0,0,10.29,4.38ZM11,12.32a.82.82,0,1,0,.82.82A.82.82,0,0,0,11,12.32Z"/></g></g></svg>