<svg xmlns="http://www.w3.org/2000/svg" xmlns:xlink="http://www.w3.org/1999/xlink" viewBox="0 0 12.33 13.47"><defs><style>.cls-1,.cls-2{fill-rule:evenodd;}.cls-1{fill:url(#Dégradé_sans_nom_18);}.cls-2{fill:url(#Eau_7);}</style><linearGradient id="Dégradé_sans_nom_18" x1="2.84" y1="7.48" x2="9.49" y2="15.41" gradientUnits="userSpaceOnUse"><stop offset="0" stop-color="#4d4d4d"/><stop offset="1" stop-color="#1a1a1a"/></linearGradient><linearGradient id="Eau_7" x1="3.26" y1="1.36" x2="8.99" y2="8.19" gradientUnits="userSpaceOnUse"><stop offset="0" stop-color="#69afe0"/><stop offset="0.1" stop-color="#60addf"/><stop offset="0.26" stop-color="#46a6dc"/><stop offset="0.46" stop-color="#1d9bd7"/><stop offset="0.58" stop-color="#0094d3"/><stop offset="1" stop-color="#007fc3"/></linearGradient></defs><title>FILEROOM_Asset 3</title><g id="Layer_2" data-name="Layer 2"><g id="Layer_1-2" data-name="Layer 1"><path class="cls-1" d="M12.32,10.27a.89.89,0,0,0-.85-.9.9.9,0,0,0-1,.8,2.81,2.81,0,0,0,0,.29c0,.34,0,.68,0,1a1.38,1.38,0,0,1,0,.2l-.11,0H1.89l0,0c0-.09,0-.19,0-.29,0-.36,0-.72,0-1.08A.9.9,0,0,0,.63,9.42a.89.89,0,0,0-.62.87c0,.77,0,1.55,0,2.32a.89.89,0,0,0,.51.82,1.17,1.17,0,0,0,.32,0l10.58,0a1.49,1.49,0,0,0,.42,0,.88.88,0,0,0,.48-.8C12.33,11.83,12.33,11.05,12.32,10.27Z"/><path class="cls-2" d="M2.85,7.29l2.9,2.9c0,.05.1.11.16.16a.38.38,0,0,0,.52,0l.11-.11,3-3c.05-.06.11-.11.15-.17a.32.32,0,0,0-.21-.47H8.23l-.32,0c0-.15,0-.26,0-.38V.93a2.11,2.11,0,0,0,0-.35A.67.67,0,0,0,7.29,0H5.1a.7.7,0,0,0-.66.65,2.81,2.81,0,0,0,0,.29V6.21a.81.81,0,0,1,0,.37l-.24,0H2.89a.31.31,0,0,0-.21.5A1.45,1.45,0,0,0,2.85,7.29Z"/></g></g></svg>