<svg xmlns="http://www.w3.org/2000/svg" viewBox="0 0 56.97 50.14"><defs><style>.cls-1,.cls-2,.cls-3,.cls-4{fill:none;stroke-miterlimit:10;}.cls-1{stroke:#231f20;}.cls-1,.cls-3,.cls-4{stroke-linecap:round;stroke-width:1.26px;}.cls-2,.cls-4{stroke:#193963;}.cls-2{stroke-width:0.86px;}.cls-3{stroke:#525252;}</style></defs><title>feature-verify</title><g id="Layer_2" data-name="Layer 2"><g id="Layer_1-2" data-name="Layer 1"><path class="cls-1" d="M17,22.71a9.63,9.63,0,0,1-2.83-4.2C13.35,15.88,15.55,16,15.55,16,14.5,12.52,14.82,4.11,22.7,1.59s10.72.74,10.72.74"/><path class="cls-1" d="M40.84,11.26A11.34,11.34,0,0,0,37.3,3.81a5.21,5.21,0,0,0-3.88-.33"/><path class="cls-1" d="M17.55,19.24s-.11-6.51,2.52-7.67c0,0,10.19,2.94,13,2.1l-1.79-2.1c.3.34,2.3.46,2.82.61a15,15,0,0,1,1.55.54"/><path class="cls-1" d="M34.41,32.7a8.69,8.69,0,0,1-6.35,2.83c-8.5,0-10.93-12-10.93-12"/><path class="cls-1" d="M21.33,33.85s.53,3.36-4.94,3.89S1,39.1.63,49.5"/><path class="cls-1" d="M35.64,33.85s-.45,2.85,3.75,3.71a11.8,11.8,0,0,0,1.18.18c5.08.48,14.06,1.24,15.56,9.7a16.11,16.11,0,0,1,.21,2.06"/><path class="cls-2" d="M47.86,23.06a8.41,8.41,0,1,1-8.41-8.4A8.41,8.41,0,0,1,47.86,23.06Z"/><path class="cls-3" d="M47.86,23.06a8.41,8.41,0,1,1-8.41-8.4A8.41,8.41,0,0,1,47.86,23.06Z"/><polyline class="cls-4" points="36.19 23.29 38.69 25.79 44.09 20.39"/></g></g></svg>