<svg xmlns="http://www.w3.org/2000/svg" xmlns:xlink="http://www.w3.org/1999/xlink" viewBox="0 0 29.42 36.65"><defs><style>.cls-1{fill:url(#Dégradé_sans_nom_18);}.cls-2{fill:url(#Eau_7);}</style><linearGradient id="Dégradé_sans_nom_18" x1="4.84" y1="2.17" x2="26.13" y2="27.55" gradientUnits="userSpaceOnUse"><stop offset="0" stop-color="#4e4e4e"/><stop offset="1" stop-color="#1a1a1a"/></linearGradient><linearGradient id="Eau_7" x1="6.81" y1="5.39" x2="23.85" y2="25.71" gradientUnits="userSpaceOnUse"><stop offset="0" stop-color="#69aee0"/><stop offset="0.1" stop-color="#60acdf"/><stop offset="0.27" stop-color="#46a5db"/><stop offset="0.48" stop-color="#1d9ad6"/><stop offset="0.58" stop-color="#0794d3"/><stop offset="1" stop-color="#0580c4"/></linearGradient></defs><title>feature-secure</title><g id="Layer_2" data-name="Layer 2"><g id="Layer_1-2" data-name="Layer 1"><path class="cls-1" d="M29.38,6.67a1,1,0,0,0-1.06-1C21.13,5,17,2.26,14.71,0,12.46,2.26,8.29,5,1.1,5.64A1,1,0,0,0,0,6.67,37.71,37.71,0,0,0,1.91,20.54,31,31,0,0,0,7.07,30a27.2,27.2,0,0,0,7.64,6.69A27.2,27.2,0,0,0,22.35,30a31.2,31.2,0,0,0,5.17-9.42A37.71,37.71,0,0,0,29.38,6.67ZM21.3,29a27.27,27.27,0,0,1-6.59,6,27.27,27.27,0,0,1-6.59-6C4.84,24.91,1,17.78,1.43,7,8,6.43,12.16,4.1,14.71,1.91,17.26,4.1,21.45,6.43,28,7,28.38,17.78,24.58,24.91,21.3,29Z"/><path class="cls-2" d="M25.61,8.17c-5.76-.48-9.1-2.7-10.9-4.51-1.8,1.81-5.14,4-10.89,4.51A.83.83,0,0,0,3,9,30.17,30.17,0,0,0,4.46,20.1a25,25,0,0,0,4.13,7.54A22.14,22.14,0,0,0,14.71,33a21.85,21.85,0,0,0,6.12-5.36A25,25,0,0,0,25,20.1,30.17,30.17,0,0,0,26.45,9,.82.82,0,0,0,25.61,8.17Zm-2.7,5.73L15.42,24.84a1.22,1.22,0,0,1-.95.54H14.4a1.26,1.26,0,0,1-.94-.43L7.85,18.49a1.24,1.24,0,1,1,1.88-1.63l4.55,5.24,6.58-9.61a1.24,1.24,0,1,1,2.05,1.41Z"/></g></g></svg>