<svg xmlns="http://www.w3.org/2000/svg" xmlns:xlink="http://www.w3.org/1999/xlink" viewBox="0 0 52.48 48.87"><defs><style>.cls-1{fill:url(#Dégradé_sans_nom_18);}.cls-2{fill:url(#Dégradé_sans_nom_18-2);}.cls-3{fill:url(#Dégradé_sans_nom_18-3);}.cls-4{fill:url(#Dégradé_sans_nom_18-4);}.cls-5{fill:url(#Dégradé_sans_nom_18-5);}.cls-6{fill:url(#Eau_7);}</style><linearGradient id="Dégradé_sans_nom_18" x1="39.8" y1="41.63" x2="41.96" y2="44.2" gradientUnits="userSpaceOnUse"><stop offset="0" stop-color="#4e4e4e"/><stop offset="1" stop-color="#1a1a1a"/></linearGradient><linearGradient id="Dégradé_sans_nom_18-2" x1="42.98" y1="41.63" x2="45.14" y2="44.2" xlink:href="#Dégradé_sans_nom_18"/><linearGradient id="Dégradé_sans_nom_18-3" x1="46.16" y1="41.63" x2="48.31" y2="44.2" xlink:href="#Dégradé_sans_nom_18"/><linearGradient id="Dégradé_sans_nom_18-4" x1="7.93" y1="12.89" x2="43.14" y2="54.85" xlink:href="#Dégradé_sans_nom_18"/><linearGradient id="Dégradé_sans_nom_18-5" x1="9.57" y1="7.05" x2="25.94" y2="26.56" xlink:href="#Dégradé_sans_nom_18"/><linearGradient id="Eau_7" x1="26.55" y1="3.83" x2="42.92" y2="23.34" gradientUnits="userSpaceOnUse"><stop offset="0" stop-color="#69aee0"/><stop offset="0.1" stop-color="#60acdf"/><stop offset="0.27" stop-color="#46a5db"/><stop offset="0.48" stop-color="#1d9ad6"/><stop offset="0.58" stop-color="#0794d3"/><stop offset="1" stop-color="#0580c4"/></linearGradient></defs><title>feature-fileroom</title><g id="Layer_2" data-name="Layer 2"><g id="Layer_1-2" data-name="Layer 1"><rect class="cls-1" x="39.69" y="41.73" width="2.38" height="2.38"/><rect class="cls-2" x="42.87" y="41.73" width="2.38" height="2.38"/><rect class="cls-3" x="46.04" y="41.73" width="2.38" height="2.38"/><path class="cls-4" d="M52.24,38.12a1.17,1.17,0,0,0,.2-1L46.36,15.62a1.2,1.2,0,0,0-1.14-.88H39.5v1.37h2a1.79,1.79,0,0,1,1.54,2.68l-3.55,6.14L36,31.08a1.79,1.79,0,0,1-3.09,0l-3.55-6.15-3.54-6.14a1.78,1.78,0,0,1,1.54-2.68h2V14.74H23.09V30.19A1.79,1.79,0,0,1,21.3,32H14.77A1.78,1.78,0,0,1,13,30.19V14.74H6.16A1.22,1.22,0,0,0,5,15.69L.31,37.14a1.18,1.18,0,0,0,.14.92A3.49,3.49,0,0,0,0,39.66v5.81a3.48,3.48,0,0,0,3.52,3.4H49a3.34,3.34,0,0,0,3.36-3.4V39.66a3.43,3.43,0,0,0-.28-1.44S52.22,38.16,52.24,38.12ZM50,45.43A1.06,1.06,0,0,1,49,46.49H3.44a1.07,1.07,0,0,1-1.06-1.06V39.61a1.07,1.07,0,0,1,1.06-1.06H49A1.06,1.06,0,0,1,50,39.61Z"/><path class="cls-5" d="M10.94,12.69h3.63v17.5a.2.2,0,0,0,.2.2H21.3a.2.2,0,0,0,.2-.2V12.69h3.63a.19.19,0,0,0,.17-.1.18.18,0,0,0,0-.2L21.75,6.24,18.21.1A.21.21,0,0,0,18,0a.19.19,0,0,0-.17.1L14.32,6.24l-3.55,6.15a.18.18,0,0,0,0,.2A.19.19,0,0,0,10.94,12.69Z"/><path class="cls-6" d="M27.18,17.8a.21.21,0,0,0,0,.19l3.55,6.15,3.55,6.15a.19.19,0,0,0,.17.1.21.21,0,0,0,.17-.1l3.55-6.15L41.72,18a.21.21,0,0,0,0-.19.21.21,0,0,0-.17-.1H37.91V.2a.2.2,0,0,0-.2-.2H31.18A.19.19,0,0,0,31,.2V17.7H27.35A.21.21,0,0,0,27.18,17.8Z"/></g></g></svg>