<svg xmlns="http://www.w3.org/2000/svg" viewBox="0 0 14.25 19.25"><defs><style>.cls-1{fill:none;stroke:#999;stroke-miterlimit:10;stroke-width:0.5px;}</style></defs><title>file-white</title><g id="Layer_2" data-name="Layer 2"><g id="Layer_1-2" data-name="Layer 1"><path class="cls-1" d="M14,6.5v9.38A3.12,3.12,0,0,1,10.88,19H3.38A3.13,3.13,0,0,1,.25,15.88V3.38A3.13,3.13,0,0,1,3.38.25H7.75a3,3,0,0,1,2.13.88l3.24,3.24A3,3,0,0,1,14,6.5Zm-5,0A1.25,1.25,0,0,1,7.75,5.25V2.75H3.38a.63.63,0,0,0-.63.63v12.5a.63.63,0,0,0,.63.62h7.5a.62.62,0,0,0,.62-.62V6.5ZM4,7.75V9h6.25V7.75Zm0,2.5V11.5h6.25V10.25Zm0,2.5V14h6.25V12.75Z"/></g></g></svg>