<svg xmlns="http://www.w3.org/2000/svg" viewBox="0 0 33.06 20"><defs><style>.cls-1{fill:#183863;}.cls-2{fill:#fff;}</style></defs><title>Top_NavAsset 6</title><g id="Layer_2" data-name="Layer 2"><g id="Layer_1-2" data-name="Layer 1"><path class="cls-1" d="M26.35,12.25,16.74,6.49,16,6.88a.33.33,0,0,0-.17.18c-.84,1.79-1.81,2-2.31,2a1.23,1.23,0,0,1-.62-.18l.9-3.16h0a1.9,1.9,0,0,1,.77-1h0l2.47-1.36,0,0,.09-.06L16.76,3a1.87,1.87,0,0,0-1.05-.41,2.38,2.38,0,0,0-.76.1L10.24,4.05A.35.35,0,0,1,10,4l-.74-.37-4,8.08,2.27,1.36a1,1,0,0,1,.58-.16.81.81,0,0,1,.66.35.78.78,0,0,1,.09.6l.84.5.47-.3a1,1,0,0,1,.59-.16.8.8,0,0,1,.66.36.78.78,0,0,1,.08.62,1,1,0,0,1-.23.42l.73.44.91-.58a1,1,0,0,1,.6-.17.77.77,0,0,1,.65.36.88.88,0,0,1-.31,1.18l-.23.15,0,0a.47.47,0,0,0,.12.09l.6.36.11-.07a1.05,1.05,0,0,1,.59-.16.75.75,0,0,1,.74,1,.16.16,0,0,1,0,.09l1.83,1.09a.94.94,0,0,0,1.28-.32l.08-.14a.94.94,0,0,0-.21-1.2L18,17.06l-.59-.36-.06,0h0l0,0a.39.39,0,0,1-.08-.52.4.4,0,0,1,.52-.11l1.3.8,1.18.7a1,1,0,0,0,.44.13.92.92,0,0,0,.84-.45l.09-.14a.94.94,0,0,0-.24-1.22l-.92-.56-.9-.55,0,0h0l0,0a.38.38,0,0,1-.1-.52.39.39,0,0,1,.52-.12l3.14,1.9a1.07,1.07,0,0,0,.44.13.93.93,0,0,0,.84-.46l.08-.14a.93.93,0,0,0-.21-1.2l-2.44-1.53h0a.39.39,0,0,1-.13-.53.38.38,0,0,1,.53-.12l2.49,1.55.67.36h0a.83.83,0,0,0,.43.13.94.94,0,0,0,.85-.45l.08-.14A.93.93,0,0,0,26.35,12.25Z"/><path class="cls-2" d="M24.51,3.16l-1.08.42a.42.42,0,0,1-.19,0L18.86,3h0a2,2,0,0,0-.46-.06A1.45,1.45,0,0,0,18,3a2.24,2.24,0,0,0-.84.32l-.09.06,0,0L14.58,4.72h0a1.9,1.9,0,0,0-.77,1h0l-.9,3.16a1.23,1.23,0,0,0,.62.18c.5,0,1.47-.21,2.31-2A.33.33,0,0,1,16,6.88l.76-.39.62-.31a.41.41,0,0,1,.19,0,.43.43,0,0,1,.18.06L22.44,9l4.25,2.55h0l0,0a1.88,1.88,0,0,1,.23.16h0l.81-.46Z"/><path class="cls-1" d="M15.61,17.29a.81.81,0,0,0-.66-.35,1.05,1.05,0,0,0-.59.16l-.11.07,0,0,0,0-.24.15a1.14,1.14,0,0,0-.3.32.85.85,0,0,0-.09.24.78.78,0,0,0,.08.62.8.8,0,0,0,.66.36,1,1,0,0,0,.59-.17l.26-.16.13-.08a1,1,0,0,0,.4-.5.16.16,0,0,0,0-.09A.81.81,0,0,0,15.61,17.29Z"/><path class="cls-1" d="M14.1,15.37a.77.77,0,0,0-.65-.36,1,1,0,0,0-.6.17l-.91.58h0l-.23.15h0l-.19.15a1.19,1.19,0,0,0-.16.23.73.73,0,0,0-.07.19.8.8,0,0,0,.08.63.85.85,0,0,0,.66.36,1.06,1.06,0,0,0,.59-.17l.21-.13.69-.45h0l0,0,.23-.15A.88.88,0,0,0,14.1,15.37Z"/><path class="cls-1" d="M11.36,14.28a.8.8,0,0,0-.66-.36,1,1,0,0,0-.59.16l-.47.3-.15.1a1.2,1.2,0,0,0-.21.17l-.1.14a1.29,1.29,0,0,0-.09.16s0,.08,0,.11a.76.76,0,0,0,.09.63.8.8,0,0,0,.66.36,1,1,0,0,0,.59-.17l.13-.08.49-.31h0l.18-.15h0a1,1,0,0,0,.23-.42A.78.78,0,0,0,11.36,14.28Z"/><path class="cls-1" d="M8.05,12.93a1,1,0,0,0-.58.16h0l-.06,0a1,1,0,0,0-.43.55v0a.75.75,0,0,0,.09.62.77.77,0,0,0,.65.36,1,1,0,0,0,.6-.17l0,0h0a.87.87,0,0,0,.21-.17l.1-.14a.66.66,0,0,0,.12-.27v0a.78.78,0,0,0-.09-.6A.81.81,0,0,0,8.05,12.93Z"/><path class="cls-1" d="M17.69,3l-.09,0h0l-.2.09h0l-.08,0,0,0-.09,0-.09.06,0,0L14.58,4.72h0a1.9,1.9,0,0,0-.77,1h0l-.9,3.16a1.23,1.23,0,0,0,.62.18c.5,0,1.47-.21,2.31-2A.33.33,0,0,1,16,6.88l1.38-.7a.41.41,0,0,1,.19,0,.43.43,0,0,1,.18.06l9,5.37a2.62,2.62,0,0,1,.29.2h0l.81-.46L24.51,3.16l-1.08.42a.42.42,0,0,1-.19,0L18.86,3h0a2,2,0,0,0-.46-.06A1.45,1.45,0,0,0,18,3,1.73,1.73,0,0,0,17.7,3Z"/><path class="cls-2" d="M17.69,3h0Z"/><path class="cls-2" d="M17.59,3.07h0Z"/><path class="cls-2" d="M17.26,3.23l0,0Z"/><path class="cls-2" d="M17.37,3.17h0Z"/><path class="cls-2" d="M17.17,3.28l.09,0Z"/><path class="cls-2" d="M18,3A1.73,1.73,0,0,0,17.7,3,1.73,1.73,0,0,1,18,3Z"/><path class="cls-2" d="M17.29,3.21l.08,0Z"/><path class="cls-2" d="M17.39,3.16l.2-.09Z"/><path class="cls-2" d="M17.6,3.07l.09,0Z"/><rect class="cls-2" x="-1.76" y="4.28" width="11.86" height="3.6" rx="0.26" transform="translate(-3.13 7.09) rotate(-63.49)"/><rect class="cls-2" x="27.53" y="0.18" width="3.6" height="11.43" rx="0.26" transform="translate(-0.07 11.41) rotate(-21.99)"/><path class="cls-2" d="M28.64,11.33,25.08,2.51a.39.39,0,0,0-.5-.21l-1.34.53L19,2.25a3.22,3.22,0,0,0-.58-.08,2.62,2.62,0,0,0-1.16.21h0a2.6,2.6,0,0,0-1.48-.57,3.21,3.21,0,0,0-1,.13h0L10.18,3.27l-1-.48a.37.37,0,0,0-.29,0A.45.45,0,0,0,8.7,3L4.35,11.71a.39.39,0,0,0,.15.5l1.8,1.07a2.25,2.25,0,0,0-.08.24,1.54,1.54,0,0,0,.18,1.24,1.6,1.6,0,0,0,1.27.71,2,2,0,0,0,.59-.08,1.53,1.53,0,0,0,.23.72,1.58,1.58,0,0,0,1.27.7,1.75,1.75,0,0,0,.72-.11,1.44,1.44,0,0,0,.24.84,1.54,1.54,0,0,0,1.26.7,1.79,1.79,0,0,0,.76-.13A1.56,1.56,0,0,0,13,19a1.61,1.61,0,0,0,1.27.71,1.82,1.82,0,0,0,1-.29l.39-.25a.83.83,0,0,0,.18-.13l1.24.74a1.74,1.74,0,0,0,.8.24,1.69,1.69,0,0,0,1.54-.83l.08-.14a1.73,1.73,0,0,0,.24-.93l.1.06a1.74,1.74,0,0,0,.8.24,1.69,1.69,0,0,0,1.53-.83l.09-.14a1.63,1.63,0,0,0,.23-.94l.16.09a1.59,1.59,0,0,0,.79.24A1.71,1.71,0,0,0,25,16l.08-.14a1.62,1.62,0,0,0,.23-1,2,2,0,0,0,.41.07h0a1.69,1.69,0,0,0,1.54-.83l.08-.14a1.68,1.68,0,0,0,.11-1.52l1-.59A.4.4,0,0,0,28.64,11.33ZM8.79,13.91a.66.66,0,0,1-.12.27l-.1.14a.87.87,0,0,1-.21.17l-.06,0a1,1,0,0,1-.6.17.77.77,0,0,1-.65-.36A.75.75,0,0,1,7,13.72v-.08H7l0,0H7l0,0H7v0H7l0,0h0l0,0h0l0,0h0l0,0h0l0,0h0l0,0h0l0,0v0l0,0h0v0h0l0,0h0l0,0,.06,0h0a1,1,0,0,1,.58-.16.75.75,0,0,1,.74,1ZM11,15.48h0l-.62.39a1,1,0,0,1-.59.17.8.8,0,0,1-.66-.36.76.76,0,0,1-.09-.63,1.11,1.11,0,0,1,.13-.27l.1-.14a1.2,1.2,0,0,1,.21-.17l.62-.4a1,1,0,0,1,.59-.16.8.8,0,0,1,.66.36.78.78,0,0,1,.08.62.92.92,0,0,1-.24.43Zm1.59,1.83a1.06,1.06,0,0,1-.59.17.85.85,0,0,1-.66-.36.8.8,0,0,1-.08-.63,1,1,0,0,1,.23-.42l.19-.15h0l1.14-.73a1,1,0,0,1,.6-.17.77.77,0,0,1,.65.36.88.88,0,0,1-.31,1.18l-.23.15-.05,0Zm3.08.61a.16.16,0,0,1,0,.09l0,.07h0l0,.06h0a.21.21,0,0,1,0,.06h0l-.05.06h0l-.05.06h0l-.06,0h0l-.06.05h0l-.06.05-.39.24a1,1,0,0,1-.59.17.8.8,0,0,1-.66-.36.78.78,0,0,1-.08-.62.92.92,0,0,1,.39-.56l.24-.15,0,0,.15-.1a1.05,1.05,0,0,1,.59-.16.75.75,0,0,1,.74,1Zm11-4.39-.08.14a.94.94,0,0,1-.85.45.83.83,0,0,1-.43-.13h0l-.67-.36-2.49-1.55a.38.38,0,0,0-.53.12.39.39,0,0,0,.13.53h0l2.44,1.53a.93.93,0,0,1,.21,1.2l-.08.14a.93.93,0,0,1-.84.46,1.07,1.07,0,0,1-.44-.13L19.91,14a.39.39,0,0,0-.52.12.38.38,0,0,0,.1.52l0,0h0l0,0,.9.55.92.56A.94.94,0,0,1,21.61,17l-.09.14a.92.92,0,0,1-.84.45,1,1,0,0,1-.44-.13l-1.18-.7-1.3-.8a.4.4,0,0,0-.52.11.39.39,0,0,0,.08.52l0,0h0l.06,0,.59.36.63.38a.94.94,0,0,1,.21,1.2l-.08.14a.94.94,0,0,1-1.28.32l-1.16-.69a2.49,2.49,0,0,0,.11-.29,1.53,1.53,0,0,0-.19-1.24A1.57,1.57,0,0,0,15,16.17h-.05A1.55,1.55,0,0,0,14.75,15a1.6,1.6,0,0,0-1.27-.71,1.82,1.82,0,0,0-1,.29l-.2.13a1.42,1.42,0,0,0-.24-.8,1.6,1.6,0,0,0-1.27-.71,1.86,1.86,0,0,0-1,.29l-.11.07a1.44,1.44,0,0,0-.22-.64,1.59,1.59,0,0,0-1.27-.71,1.74,1.74,0,0,0-1,.28l-.07,0-.23.18L5.2,11.73l4-8.08L10,4a.35.35,0,0,0,.28,0L15,2.67a2.38,2.38,0,0,1,.76-.1,1.79,1.79,0,0,1,.77.22L14.22,4A2.68,2.68,0,0,0,13,5.52l-1,3.35a.43.43,0,0,0,0,.25,1.57,1.57,0,0,0,1.37.71c.69,0,2-.24,3-2.32L17.52,7,21,9.07l5.25,3.14.19.13h0l.14.14h0A.92.92,0,0,1,26.67,13.53ZM27,11.77h0l0,0h0l0,0h0l0,0h0l-.14-.09-9-5.37a.43.43,0,0,0-.18-.06.41.41,0,0,0-.19,0l-.62.31h0L16,6.88a.33.33,0,0,0-.17.18c-.84,1.79-1.81,2-2.31,2a1.23,1.23,0,0,1-.62-.18l.9-3.16h0a1.9,1.9,0,0,1,.77-1h0l2.47-1.36,0,0,.09-.06.09,0,0,0,.08,0h0l.2-.09h0l.09,0h0A1.73,1.73,0,0,1,18,3h0a1.45,1.45,0,0,1,.36,0,2,2,0,0,1,.46.06h0l4.38.6a.42.42,0,0,0,.19,0l1.08-.42,3.29,8.15Z"/></g></g></svg>