<svg xmlns="http://www.w3.org/2000/svg" viewBox="0 0 20.01 20.02"><defs><style>.cls-1,.cls-2{fill:#fff;}.cls-1{fill-rule:evenodd;}</style></defs><title>help</title><g id="Layer_2" data-name="Layer 2"><g id="Layer_1-2" data-name="Layer 1"><path class="cls-1" d="M17.09,2.93A10,10,0,0,0,2.93,17.09,10,10,0,0,0,17.09,2.93ZM15.8,15.8A8.19,8.19,0,1,1,4.22,4.22,8.19,8.19,0,0,1,15.8,15.8Z"/><path class="cls-1" d="M10,3.68A4.32,4.32,0,0,0,5.68,8H7.91a2.11,2.11,0,0,1,.62-1.49,2.1,2.1,0,0,1,3,0,2.09,2.09,0,0,1,0,3,2.08,2.08,0,0,1-1.48.61H8.89V13h2.24V12.2A4.33,4.33,0,0,0,10,3.68Z"/><rect class="cls-2" x="8.89" y="14.1" width="2.24" height="2.24"/></g></g></svg>