<svg xmlns="http://www.w3.org/2000/svg" xmlns:xlink="http://www.w3.org/1999/xlink" viewBox="0 0 18.6 16.77"><defs><style>.cls-1{fill:none;}.cls-2{clip-path:url(#clip-path);}.cls-3{fill:#414042;}</style><clipPath id="clip-path" transform="translate(0 0)"><rect class="cls-1" width="18.6" height="16.77"/></clipPath></defs><title>home</title><g id="Layer_2" data-name="Layer 2"><g id="Layer_1-2" data-name="Layer 1"><g class="cls-2"><path class="cls-3" d="M16.81,10.47,9.3,3,1.79,10.47a1.06,1.06,0,0,1-1.49,0A1.06,1.06,0,0,1,.3,9l9-9,9,9a1,1,0,0,1,0,1.48,1,1,0,0,1-.74.31,1,1,0,0,1-.74-.31" transform="translate(0 0)"/></g><polygon class="cls-3" points="2.68 10.62 2.68 16.77 7.91 16.77 7.91 12.12 10.69 12.12 10.69 16.77 15.93 16.77 15.93 10.62 9.3 4 2.68 10.62"/></g></g></svg>