<svg xmlns="http://www.w3.org/2000/svg" viewBox="0 0 21.18 20"><defs><style>.cls-1{fill:#fff;fill-rule:evenodd;}</style></defs><title>Top_NavAsset 7</title><g id="Layer_2" data-name="Layer 2"><g id="Layer_1-2" data-name="Layer 1"><path class="cls-1" d="M21.18.93A.93.93,0,0,0,20.25,0H.93A.92.92,0,0,0,0,.93V3.78a.93.93,0,0,0,.93.93H20.25a.93.93,0,0,0,.93-.93ZM2.91,2.79a1,1,0,1,1,1-1A1,1,0,0,1,2.91,2.79Z"/><path class="cls-1" d="M21.18,6a.93.93,0,0,0-.93-.92H.93A.92.92,0,0,0,0,6V8.88a.92.92,0,0,0,.93.92H20.25a.93.93,0,0,0,.93-.92ZM2.91,8.08a1,1,0,1,1,1-1A1,1,0,0,1,2.91,8.08Z"/><path class="cls-1" d="M21.18,11.12a.93.93,0,0,0-.93-.92H.93a.92.92,0,0,0-.93.92V14a.92.92,0,0,0,.93.92H20.25a.93.93,0,0,0,.93-.92ZM3,12.86a1,1,0,1,1,1-1A1,1,0,0,1,3,12.86Z"/><path class="cls-1" d="M21.18,16.22a.93.93,0,0,0-.93-.93H.93a.93.93,0,0,0-.93.93v2.85A.92.92,0,0,0,.93,20H20.25a.93.93,0,0,0,.93-.93ZM2.91,18.15a1,1,0,1,1,1-1A1,1,0,0,1,2.91,18.15Z"/></g></g></svg>