<svg xmlns="http://www.w3.org/2000/svg" viewBox="0 0 20.28 27.44"><defs><style>.cls-1{fill:#fff;}.cls-2{fill:#1d76bb;}</style></defs><title>logo-header</title><g id="Layer_2" data-name="Layer 2"><g id="Layer_1-2" data-name="Layer 1"><path class="cls-1" d="M17.17,5.79A12,12,0,0,0,6.35,2,11.88,11.88,0,0,0,1.44,3.92c.47,0,.94,0,1.41,0a10.42,10.42,0,0,1,4.47,1,10.32,10.32,0,0,1,3.77,3.2,1.07,1.07,0,0,0,.31.29A15,15,0,0,0,14,9.59,6,6,0,0,1,10.2,8.22a1.55,1.55,0,0,0-.7-.4.68.68,0,0,0-.66.23.47.47,0,0,0-.12.31A.7.7,0,0,0,9.13,9c2.68,1.23,4.36,1.38,5.42,1.09a2.23,2.23,0,0,0,1.44-3,9.88,9.88,0,0,0-.65-1.25,3.13,3.13,0,0,1,1.49.84,3,3,0,0,1,.82,1.51A8,8,0,0,0,17.17,5.79Z"/><path class="cls-2" d="M16.32,11.42a8.86,8.86,0,0,1-2.89,1.2A5.71,5.71,0,0,0,16.32,11.42Z"/><path class="cls-1" d="M20,11.18a12,12,0,0,0-2.8-5.39,8,8,0,0,1,.48,2.39A2.93,2.93,0,0,1,16.9,11a5.18,5.18,0,0,1-.58.47,5.71,5.71,0,0,1-2.89,1.2s.76,2.22-.39,2.85a25.64,25.64,0,0,0,2.62,3.17,4.18,4.18,0,0,1-1.82,1.83,2.26,2.26,0,0,1-1.36.1,4.05,4.05,0,0,0-1-1.95c.12.39.36.72.47,1.11a2.78,2.78,0,0,1,.08.95c-.34.14-.68.29-1,.4a3.83,3.83,0,0,0-1.31-2.54,8.07,8.07,0,0,0-3.17-1.19c-.22-.08-.52-.06-.63-.31a4.46,4.46,0,0,1-.22-3.35,3.15,3.15,0,0,0-.87,2,5,5,0,0,0,.82,2.59A13.38,13.38,0,0,0,0,22.62a12.24,12.24,0,0,0,6.3,3.11,12.26,12.26,0,0,0,5.58-.42A12,12,0,0,0,20,11.18Z"/><path class="cls-1" d="M3.32,8.18c1.13.42,2.23.93,3.35,1.38a10.61,10.61,0,0,1-1.94-.24,7,7,0,0,0,1.61,2.51,4,4,0,0,1-2.2-1.89A9.7,9.7,0,0,1,3.32,8.18Z"/><path class="cls-1" d="M12.37,14.17a1.55,1.55,0,0,0-.08-.23,4.16,4.16,0,0,0-1.24-1.69,2.18,2.18,0,0,0,0,1.57c.58,1.31,1.54,1.1,1.54,1.1Z"/><rect class="cls-1" x="5.54" y="24.81" width="2.93" height="1.76" rx="0.44" ry="0.44" transform="translate(33.18 20.77) rotate(94.6)"/><rect class="cls-1" x="8.67" y="25.07" width="2.93" height="1.76" rx="0.44" ry="0.44" transform="translate(36.81 17.93) rotate(94.6)"/><rect class="cls-1" x="7.49" y="0.62" width="2.93" height="1.76" rx="0.44" ry="0.44" transform="translate(11.17 -7.31) rotate(94.6)"/><rect class="cls-1" x="10.61" y="0.87" width="2.93" height="1.76" rx="0.44" ry="0.44" transform="matrix(-0.08, 1, -1, -0.08, 14.79, -10.15)"/></g></g></svg>