<svg xmlns="http://www.w3.org/2000/svg" xmlns:xlink="http://www.w3.org/1999/xlink" viewBox="0 0 13.63 12.5"><defs><style>.cls-1{fill-rule:evenodd;fill:url(#Dégradé_sans_nom_18);}</style><linearGradient id="Dégradé_sans_nom_18" x1="1.6" y1="3.19" x2="11.06" y2="14.47" gradientUnits="userSpaceOnUse"><stop offset="0" stop-color="#4d4d4d"/><stop offset="1" stop-color="#1a1a1a"/></linearGradient></defs><title>moderator</title><g id="Layer_2" data-name="Layer 2"><g id="Layer_1-2" data-name="Layer 1"><path class="cls-1" d="M13.58,11.47c-.1-.49-.2-1-.31-1.46A2.3,2.3,0,0,0,13,9.34a1.26,1.26,0,0,0-.75-.61l-.56-.2C11,8.26,10.3,8,9.58,7.74a1,1,0,0,1-.53-.37,1.06,1.06,0,0,0-.3-.26.43.43,0,0,1-.23-.47,1.18,1.18,0,0,1,.09-.38,4.45,4.45,0,0,0,.32-.93.23.23,0,0,0,.27-.11,3.2,3.2,0,0,0,.16-.39c.09-.31.16-.62.24-.93,0,0,0,0,0-.07a.2.2,0,0,0-.12-.24l-.13,0,0-.18a2.84,2.84,0,0,0-.25-2,2,2,0,0,0-1.21-1L7.46.19C7.11.11,6.73.12,6.38,0a.78.78,0,0,0-.26,0C6,0,5.78.09,5.61.09a.63.63,0,0,0-.5.24.38.38,0,0,1-.22.13A.79.79,0,0,0,4.5.89c0,.12-.13.23-.17.35s0,.26,0,.39a3.46,3.46,0,0,0-.06.79,5.26,5.26,0,0,0,.19,1.11c-.09.08-.22.12-.23.26a.73.73,0,0,0,0,.46A4.26,4.26,0,0,1,4.49,5a1,1,0,0,0,.15.29.72.72,0,0,0,.24.16,2.4,2.4,0,0,0,.29.77.54.54,0,0,1,.07.41,4.53,4.53,0,0,1-.11.49,2.59,2.59,0,0,0-.34.3,1.72,1.72,0,0,1-.73.49c-.64.25-1.28.48-1.94.67a6,6,0,0,0-.71.26,1.46,1.46,0,0,0-.81.84c-.15.42-.31.85-.45,1.28a3,3,0,0,0-.15.84,2.09,2.09,0,0,0,0,.43.33.33,0,0,0,.32.28h6L6.61,11l.24-1.51L6.3,8.26a.2.2,0,0,1,0-.11.09.09,0,0,1,.06-.07L7,7.88H7l.62.2a.09.09,0,0,1,.06.07.14.14,0,0,1,0,.11L7.38,9l-.23.54.47,3h5.63c.24,0,.32-.1.36-.34A2,2,0,0,0,13.58,11.47Z"/></g></g></svg>