<svg xmlns="http://www.w3.org/2000/svg" xmlns:xlink="http://www.w3.org/1999/xlink" viewBox="0 0 47.02 48.87"><defs><style>.cls-1{fill:url(#Dégradé_sans_nom_18);}.cls-2{fill:url(#Eau_7);}.cls-3{fill:url(#Eau_7-2);}.cls-4{fill:url(#Eau_7-3);}</style><linearGradient id="Dégradé_sans_nom_18" x1="13.95" y1="17.55" x2="27.46" y2="33.64" gradientUnits="userSpaceOnUse"><stop offset="0" stop-color="#4e4e4e"/><stop offset="1" stop-color="#1a1a1a"/></linearGradient><linearGradient id="Eau_7" x1="20.95" y1="20.41" x2="23.02" y2="22.88" gradientTransform="translate(21.72 -9.21) rotate(44.95)" gradientUnits="userSpaceOnUse"><stop offset="0" stop-color="#69aee0"/><stop offset="0.1" stop-color="#60acdf"/><stop offset="0.27" stop-color="#46a5db"/><stop offset="0.48" stop-color="#1d9ad6"/><stop offset="0.58" stop-color="#0794d3"/><stop offset="1" stop-color="#0580c4"/></linearGradient><linearGradient id="Eau_7-2" x1="24.34" y1="23.8" x2="26.41" y2="26.27" gradientTransform="translate(25.14 -10.61) rotate(45)" xlink:href="#Eau_7"/><linearGradient id="Eau_7-3" x1="13.52" y1="38.62" x2="28.79" y2="56.82" gradientTransform="matrix(1, 0, 0, 1, 0, 0)" xlink:href="#Eau_7"/></defs><title>feature-sign</title><g id="Layer_2" data-name="Layer 2"><g id="Layer_1-2" data-name="Layer 1"><path class="cls-1" d="M46.74,11.13,35.89.28a1,1,0,0,0-1.36,0L33.86,1,29.11,5.71,3.67,31.14a1,1,0,0,0-.25.46L0,45.84A1,1,0,0,0,1.18,47l14.25-3.39a.89.89,0,0,0,.45-.26L46.74,12.49A1,1,0,0,0,46.74,11.13Zm-36,31.62c-.82-4.48-4.61-6.25-6.39-6.84l.84-3.53,3.66.32.39,4.43a.49.49,0,0,0,.14.3.52.52,0,0,0,.3.13l4.43.39.34,3.91Zm4.61-1.59L15,37.47A.49.49,0,0,0,14.6,37l-4.43-.39-.39-4.43a.47.47,0,0,0-.43-.43L6,31.49,30.46,7.06l9.5,9.5Z"/><rect class="cls-2" x="8.56" y="21.17" width="26.86" height="0.96" rx="0.44" ry="0.44" transform="translate(-8.87 21.86) rotate(-44.95)"/><rect class="cls-3" x="11.95" y="24.56" width="26.86" height="0.96" rx="0.44" ry="0.44" transform="translate(-10.27 25.28) rotate(-45)"/><path class="cls-4" d="M22,47.86l-.52,0c.16-.25.34-.52.52-.76.59-.81,1.23-1.61,1.86-2.4h0a.51.51,0,0,0,.1-.38.47.47,0,0,0-.55-.37L18,45c-1.8.34-3.61.68-5.4,1.06L7.23,47.2c-1.79.4-3.59.78-5.38,1.21,1.83-.23,3.64-.52,5.46-.77l5.44-.86c1.81-.28,3.62-.6,5.42-.92l4.2-.73c-.38.48-.75,1-1.11,1.48A8.76,8.76,0,0,0,20.4,48a.79.79,0,0,0-.06.43.53.53,0,0,0,.51.42l.16,0h0l.39,0,.76-.08c1-.09,2-.22,3-.28s2-.15,3-.25l6.1-.54c2-.22,4.07-.4,6.1-.64-4.1,0-8.16.21-12.29.42C26.12,47.54,24.05,47.67,22,47.86ZM20.79,48h0Z"/></g></g></svg>