<svg xmlns="http://www.w3.org/2000/svg" xmlns:xlink="http://www.w3.org/1999/xlink" viewBox="0 0 19.79 20"><defs><style>.cls-1{fill:#fff;}.cls-2{fill:url(#Eau_7);}.cls-3{fill:url(#Eau_7-2);}</style><linearGradient id="Eau_7" x1="15.85" y1="15.83" x2="19.11" y2="19.72" gradientUnits="userSpaceOnUse"><stop offset="0" stop-color="#69afe0"/><stop offset="0.1" stop-color="#60addf"/><stop offset="0.26" stop-color="#46a6dc"/><stop offset="0.46" stop-color="#1d9bd7"/><stop offset="0.58" stop-color="#0094d3"/><stop offset="1" stop-color="#007fc3"/></linearGradient><linearGradient id="Eau_7-2" x1="3.94" y1="4.28" x2="5.3" y2="5.9" xlink:href="#Eau_7"/></defs><title>Top_NavAsset 9</title><g id="Layer_2" data-name="Layer 2"><g id="Layer_1-2" data-name="Layer 1"><path class="cls-1" d="M15.62,13.51l-2.29,2.28.24.25,2.29-2.29Z"/><path class="cls-1" d="M15.16,13.05l-2.28,2.28.24.25,2.29-2.29Z"/><path class="cls-1" d="M14.81,12.69l-.1-.1-2.28,2.28.24.25L15,12.83Z"/><path class="cls-1" d="M16.08,14l-2.29,2.29.24.24,2.29-2.29Z"/><path class="cls-2" d="M19.52,17.5a3.43,3.43,0,0,0-.43-.5L17,14.88l-2.3,2.3,1.88,1.9a5.14,5.14,0,0,0,.75.65,1.59,1.59,0,0,0,2-.21A1.61,1.61,0,0,0,19.52,17.5Z"/><path class="cls-1" d="M13.7,11.57a2.64,2.64,0,0,1-.49-.65c0-.06,0-.08,0-.09l.07-.13A7,7,0,0,0,14.19,7a6.9,6.9,0,0,0-2.12-5A6.66,6.66,0,0,0,6,.12,6.9,6.9,0,0,0,.9,3.75,7,7,0,0,0,1.12,11a6.48,6.48,0,0,0,4.16,3.13,7.89,7.89,0,0,0,2.56.22,5.91,5.91,0,0,0,2.87-1l.14-.06c.08.08.17.15.24.23l1.13,1.12,2.28-2.29Zm-4.14.16a4.62,4.62,0,0,1-3,.55L6,12.2a5,5,0,0,1-3.8-3.8c-.09-.41-.12-.84-.18-1.27a5.17,5.17,0,0,1,4.12-5,5,5,0,0,1,5.91,3.92A5.21,5.21,0,0,1,9.56,11.73Z"/><path class="cls-1" d="M16.53,14.42l-2.29,2.3.24.24,2.29-2.29Z"/><path class="cls-3" d="M6.67,3.07A3.58,3.58,0,0,0,3.39,5.22a7.13,7.13,0,0,0-.64,2.13A.31.31,0,0,0,3,7.69H3a.33.33,0,0,0,.33-.29,6,6,0,0,1,.58-1.88A3,3,0,0,1,6.67,3.71a.32.32,0,0,0,0-.64Z"/></g></g></svg>