<svg xmlns="http://www.w3.org/2000/svg" xmlns:xlink="http://www.w3.org/1999/xlink" viewBox="0 0 13.97 16.84"><defs><style>.cls-1{fill:url(#Dégradé_sans_nom_18);}.cls-2{fill:url(#Eau_7);}</style><linearGradient id="Dégradé_sans_nom_18" x1="2.7" y1="1.78" x2="12.01" y2="12.87" gradientUnits="userSpaceOnUse"><stop offset="0" stop-color="#4d4d4d"/><stop offset="1" stop-color="#1a1a1a"/></linearGradient><linearGradient id="Eau_7" x1="6.29" y1="6.06" x2="8.91" y2="9.19" gradientUnits="userSpaceOnUse"><stop offset="0" stop-color="#69afe0"/><stop offset="0.1" stop-color="#60addf"/><stop offset="0.26" stop-color="#46a6dc"/><stop offset="0.46" stop-color="#1d9bd7"/><stop offset="0.58" stop-color="#0094d3"/><stop offset="1" stop-color="#007fc3"/></linearGradient></defs><title>FILEROOM_Asset 2</title><g id="Layer_2" data-name="Layer 2"><g id="Layer_1-2" data-name="Layer 1"><path class="cls-1" d="M13.93,4l-.24-.22A19.05,19.05,0,0,0,7.22.07L7,0H7l-.2.06A19.05,19.05,0,0,0,.28,3.82L0,4a.11.11,0,0,0,0,.09v.33A17.26,17.26,0,0,0,.91,9a15.76,15.76,0,0,0,1.94,4,12.68,12.68,0,0,0,3.7,3.6l.37.24a.15.15,0,0,0,.13,0l.37-.24A12.84,12.84,0,0,0,11.13,13a16.08,16.08,0,0,0,1.93-4A17.26,17.26,0,0,0,14,4.46V4.13A.11.11,0,0,0,13.93,4Zm-1.64.81a17.44,17.44,0,0,1-.8,3.69,12.36,12.36,0,0,1-4.43,6.31.14.14,0,0,1-.15,0A12.36,12.36,0,0,1,2.48,8.54a17.44,17.44,0,0,1-.8-3.69.15.15,0,0,1,0-.11,18.68,18.68,0,0,1,5.22-3,.14.14,0,0,1,.09,0,18.68,18.68,0,0,1,5.22,3A.15.15,0,0,1,12.29,4.85Z"/><path class="cls-2" d="M10,5.09a.06.06,0,0,0-.08,0L6.42,8.89a.06.06,0,0,1-.08,0L4.75,7.42a.06.06,0,0,0-.08,0l-1,1.12a.06.06,0,0,0,0,.08l2.8,2.59a.06.06,0,0,0,.08,0l4.63-5s0,0,0-.08Z"/></g></g></svg>