<svg xmlns="http://www.w3.org/2000/svg" viewBox="0 0 18.6 18.6"><defs><style>.cls-1{fill:none;}.cls-2{fill:#414042;}</style></defs><title>setting-black</title><g id="Layer_2" data-name="Layer 2"><g id="Layer_1-2" data-name="Layer 1"><rect class="cls-1" width="18.6" height="18.6"/><path class="cls-2" d="M16.77,9.92l-1.69-.54a5.72,5.72,0,0,0-.35-1.56L16,6.6a.87.87,0,0,0,.14-1.1,8,8,0,0,0-1.06-1.32A.88.88,0,0,0,14,4.06L12.51,5a5.72,5.72,0,0,0-1.43-.69l-.16-1.77a.86.86,0,0,0-.77-.79,8.24,8.24,0,0,0-.85-.05,8.08,8.08,0,0,0-.85.05.86.86,0,0,0-.77.79L7.52,4.35A5.79,5.79,0,0,0,6.08,5l-1.47-1a.87.87,0,0,0-.49-.14.85.85,0,0,0-.62.26,7.91,7.91,0,0,0-1,1.32.87.87,0,0,0,.13,1.1L3.87,7.82a5.73,5.73,0,0,0-.36,1.56l-1.68.54a.87.87,0,0,0-.6.93A7.6,7.6,0,0,0,1.6,12.5a.87.87,0,0,0,.82.59h.12l1.77-.24a5.68,5.68,0,0,0,1,1.25l-.63,1.66a.86.86,0,0,0,.36,1,7.91,7.91,0,0,0,1.52.74,1,1,0,0,0,.3,0,.89.89,0,0,0,.75-.43l.9-1.52a5.29,5.29,0,0,0,.8.06,5.16,5.16,0,0,0,.79-.06L11,17.15a.88.88,0,0,0,.75.43.93.93,0,0,0,.29,0,8,8,0,0,0,1.53-.74.87.87,0,0,0,.35-1l-.62-1.65a6,6,0,0,0,1-1.25l1.76.24h.12A.86.86,0,0,0,17,12.5a8.25,8.25,0,0,0,.38-1.65A.87.87,0,0,0,16.77,9.92ZM9.3,12.2a2.33,2.33,0,1,1,2.32-2.32A2.33,2.33,0,0,1,9.3,12.2Z"/></g></g></svg>