<svg xmlns="http://www.w3.org/2000/svg" viewBox="0 0 20 20"><defs><style>.cls-1{fill:#fff;fill-rule:evenodd;}</style></defs><title>Top_NavAsset 5</title><g id="Layer_2" data-name="Layer 2"><g id="Layer_1-2" data-name="Layer 1"><path class="cls-1" d="M20,9.43a.86.86,0,0,0-.72-.86,1.25,1.25,0,0,1-.19,0l-1.74-.3c-.21-.56-.43-1.12-.65-1.69L17,6.17c.25-.32.49-.64.76-.94a1,1,0,0,0,0-1.58c-.14-.14-.26-.3-.4-.45-.56-.63-.84-.67-1.56-.23l-1.45.91a8.68,8.68,0,0,0-2.49-1.15c-.05-.24-.09-.46-.13-.68L11.47.8A.86.86,0,0,0,10.65,0,6.74,6.74,0,0,0,9.38,0a.84.84,0,0,0-.81.76c0,.24-.07.49-.13.73A6.53,6.53,0,0,1,8.2,2.69l-2.12.89L5.66,3.3c-.37-.26-.72-.53-1.1-.78a.86.86,0,0,0-1.21.09c-.27.24-.52.5-.76.76A.85.85,0,0,0,2.5,4.58c.23.36.5.69.73,1,.13.18.31.33.32.51l-.88,2.1-.32.07L.76,8.57A.84.84,0,0,0,0,9.39a9.11,9.11,0,0,0,0,1.28.8.8,0,0,0,.63.77c.15.05.31.05.46.09a11.32,11.32,0,0,1,1.6.32l.66,1.74-.55.68c-.22.28-.46.55-.67.84a.88.88,0,0,0,0,1.12,11.2,11.2,0,0,0,.8.9.82.82,0,0,0,1.1.15c.17-.09.34-.21.51-.31l1.18-.73c.43.22.82.44,1.22.62s.83.32,1.24.47l.1.49c.08.48.15,1,.26,1.45a.79.79,0,0,0,.83.72c.42,0,.85,0,1.27,0a.76.76,0,0,0,.74-.58,5.6,5.6,0,0,0,.12-.59,12.77,12.77,0,0,1,.28-1.47l2.11-.86.59.4c.33.23.65.48,1,.7a.86.86,0,0,0,1.22-.08c.26-.24.51-.5.76-.76a.9.9,0,0,0,.09-1.22c-.27-.41-.57-.8-.85-1.2-.1-.15-.18-.3-.24-.4.29-.72.57-1.38.88-2.12l.84-.15,1-.16a.88.88,0,0,0,.8-.92C20,10.19,20,9.8,20,9.43ZM10,13.77A3.71,3.71,0,0,1,6.29,10a3.75,3.75,0,1,1,7.5,0A3.71,3.71,0,0,1,10,13.77Z"/></g></g></svg>