<svg xmlns="http://www.w3.org/2000/svg" viewBox="0 0 10 10"><defs><style>.cls-1,.cls-2{fill:#fbb03b;}.cls-1{fill-rule:evenodd;}</style></defs><title>status-working</title><g id="Layer_2" data-name="Layer 2"><g id="Layer_1-2" data-name="Layer 1"><path class="cls-1" d="M8.54,1.46A5,5,0,1,0,10,5,5,5,0,0,0,8.54,1.46ZM7.89,7.89a4.08,4.08,0,0,1-5.78,0,4.08,4.08,0,0,1,0-5.78,4.08,4.08,0,0,1,5.78,0,4.08,4.08,0,0,1,0,5.78Z"/><path class="cls-2" d="M6.69,6a.86.86,0,0,1-.1.16l-.11.15-.12.14-.14.12-.15.11-.16.1-.16.08L5.57,7,5.39,7,5.2,7H4.8L4.61,7,4.43,7,4.25,6.9l-.16-.08-.16-.1-.15-.11-.14-.12-.12-.14L3.41,6.2A.86.86,0,0,1,3.31,6a.89.89,0,0,1-.08-.17.87.87,0,0,1-.07-.17,1.06,1.06,0,0,1,0-.19.58.58,0,0,1,0-.19,1.21,1.21,0,0,1,0-.19v0l.34.34.26-.26-.79-.79-.78.79.26.26.34-.34v0a1.77,1.77,0,0,0,0,.23l0,.23.06.22A1.8,1.8,0,0,0,2.89,6l.09.2.12.19.13.18.15.16.16.15L3.72,7a1.18,1.18,0,0,0,.19.11l.2.1.21.08.22,0,.23,0h.46l.23,0,.22,0,.21-.08.2-.1A1.18,1.18,0,0,0,6.28,7l.18-.13.16-.15.15-.16.13-.18L7,6.22,7.11,6l-.34-.15A.89.89,0,0,1,6.69,6Z"/><path class="cls-2" d="M3.31,4a1.4,1.4,0,0,1,.1-.16.76.76,0,0,1,.11-.14l.12-.14.14-.13.15-.11.16-.09.16-.09L4.43,3l.18,0L4.8,3h.4l.19,0,.18,0,.18.06.16.09.16.09.15.11.14.13.12.14a.76.76,0,0,1,.11.14,1.4,1.4,0,0,1,.1.16,1.3,1.3,0,0,1,.08.17,1.34,1.34,0,0,1,.07.18,1.16,1.16,0,0,1,0,.18.63.63,0,0,1,0,.19,1.34,1.34,0,0,1,0,.2v0l-.34-.34-.26.27.79.78.78-.78-.26-.27-.34.34v0a1.93,1.93,0,0,0,0-.24l0-.22L7.19,4.2A1,1,0,0,0,7.11,4L7,3.78,6.9,3.6c0-.07-.09-.12-.13-.18l-.15-.16a1.1,1.1,0,0,0-.16-.15L6.28,3a1.22,1.22,0,0,0-.19-.12l-.2-.1-.21-.07a.9.9,0,0,0-.22-.06l-.23,0H4.77l-.23,0a.9.9,0,0,0-.22.06l-.21.07-.2.1A1.22,1.22,0,0,0,3.72,3l-.18.13a1.1,1.1,0,0,0-.16.15l-.15.16c0,.06-.09.11-.13.18L3,3.78,2.89,4l.34.14A1.3,1.3,0,0,1,3.31,4Z"/></g></g></svg>