<svg xmlns="http://www.w3.org/2000/svg" xmlns:xlink="http://www.w3.org/1999/xlink" viewBox="0 0 11.06 12.09"><defs><style>.cls-1,.cls-2{fill-rule:evenodd;}.cls-1{fill:url(#Dégradé_sans_nom_18);}.cls-2{fill:url(#Eau_7);}</style><linearGradient id="Dégradé_sans_nom_18" x1="2.55" y1="6.71" x2="8.52" y2="13.83" gradientUnits="userSpaceOnUse"><stop offset="0" stop-color="#4d4d4d"/><stop offset="1" stop-color="#1a1a1a"/></linearGradient><linearGradient id="Eau_7" x1="242.11" y1="1066.07" x2="247.25" y2="1072.2" gradientTransform="translate(250.25 1074.22) rotate(180)" gradientUnits="userSpaceOnUse"><stop offset="0" stop-color="#69afe0"/><stop offset="0.1" stop-color="#60addf"/><stop offset="0.26" stop-color="#46a6dc"/><stop offset="0.46" stop-color="#1d9bd7"/><stop offset="0.58" stop-color="#0094d3"/><stop offset="1" stop-color="#007fc3"/></linearGradient></defs><title>FILEROOM_Asset 10</title><g id="Layer_2" data-name="Layer 2"><g id="Layer_1-2" data-name="Layer 1"><path class="cls-1" d="M11.06,9.21a.8.8,0,0,0-.77-.8.81.81,0,0,0-.85.72,2.17,2.17,0,0,0,0,.26v.91a1.13,1.13,0,0,1,0,.18l-.1,0H1.69l0,0c0-.07,0-.17,0-.26,0-.32,0-.65,0-1A.82.82,0,1,0,0,9.23c0,.7,0,1.39,0,2.08a.8.8,0,0,0,.46.74.9.9,0,0,0,.28,0l9.5,0a1.16,1.16,0,0,0,.37,0,.8.8,0,0,0,.44-.72C11.06,10.62,11.07,9.92,11.06,9.21Z"/><path class="cls-2" d="M8.51,2.83C7.64,2,6.78,1.09,5.91.23A1.85,1.85,0,0,0,5.77.09a.35.35,0,0,0-.47,0,.94.94,0,0,0-.1.1L2.51,2.87A1.58,1.58,0,0,0,2.39,3a.27.27,0,0,0,.18.42H4c0,.14,0,.24,0,.35V8.54c0,.1,0,.21,0,.31a.63.63,0,0,0,.54.52H6.18c.1,0,.21,0,.31,0a.61.61,0,0,0,.59-.58,2.35,2.35,0,0,0,0-.26V3.8a.76.76,0,0,1,0-.33l.21,0H8.47A.27.27,0,0,0,8.66,3,1.14,1.14,0,0,0,8.51,2.83Z"/></g></g></svg>